<svg width="35" height="25" viewBox="0 0 35 25" fill="none" xmlns="http://www.w3.org/2000/svg">
<path d="M30.1539 17.9972C29.6697 17.794 29.1637 17.6473 28.6459 17.5598C28.0088 17.4449 27.3654 17.3676 26.7192 17.3281C28.2066 17.0085 29.5731 16.2742 30.6605 15.2102C31.7485 14.1456 32.513 12.7949 32.8658 11.3142C33.2188 9.83326 33.1458 8.28268 32.6553 6.84141C32.1649 5.4006 31.2768 4.12794 30.0938 3.17047C28.9114 2.21337 27.482 1.61089 25.9712 1.43282C24.4605 1.25476 22.9302 1.50841 21.5577 2.16438C20.1847 2.82055 19.0256 3.85198 18.2144 5.13938C17.4028 6.42734 16.972 7.91859 16.9717 9.44094C16.9717 9.57532 16.9717 9.70782 16.9813 9.83938C15.3896 10.4225 14.01 11.4708 13.0217 12.848C12.027 11.3592 10.8113 10.3636 9.38453 9.87625C7.85203 9.33782 4.68485 9.20438 2.41672 12.0861C1.4211 13.3514 1.82766 14.8419 2.71547 15.6009C3.21248 16.0254 3.85545 16.2392 4.50766 16.197C5.15988 16.1547 5.76989 15.8597 6.20797 15.3747C6.24094 15.3406 6.28641 15.2905 6.34125 15.2319C6.4225 15.1439 6.63532 14.9139 6.71938 14.8306L6.73547 14.8173C6.88351 14.7098 7.05386 14.6369 7.23389 14.6041C7.41392 14.5714 7.59902 14.5795 7.77547 14.628C9.22578 15.1439 10.417 18.9425 10.6864 21.3842C10.8264 22.6675 11.9155 23.7152 13.1739 23.7152H13.2173C13.2173 23.7152 16.9169 24.0152 16.9992 21.1288C17.0256 23.8808 25.1139 23.7738 25.1139 23.7738C26.2956 23.782 27.4759 23.687 28.6413 23.4898C29.159 23.4025 29.665 23.2558 30.1492 23.0527C31.8567 22.2956 31.9891 21.0464 31.9891 20.6242C31.9891 20.2022 31.8614 18.7552 30.1539 17.9972ZM7.74047 14.6148L7.76235 14.6214L7.77453 14.6261L7.74047 14.6148Z" fill="#F1F333"/>
<mask id="mask0_1_41" style="mask-type:luminance" maskUnits="userSpaceOnUse" x="1" y="1" width="33" height="23">
<path d="M30.1539 17.9972C29.6697 17.794 29.1637 17.6473 28.6459 17.5598C28.0088 17.4449 27.3654 17.3676 26.7192 17.3281C28.2066 17.0085 29.5731 16.2742 30.6605 15.2102C31.7485 14.1456 32.513 12.7949 32.8658 11.3142C33.2188 9.83326 33.1458 8.28268 32.6553 6.84141C32.1649 5.4006 31.2768 4.12794 30.0938 3.17047C28.9114 2.21337 27.482 1.61089 25.9712 1.43282C24.4605 1.25476 22.9302 1.50841 21.5577 2.16438C20.1847 2.82055 19.0256 3.85198 18.2144 5.13938C17.4028 6.42734 16.972 7.91859 16.9717 9.44094C16.9717 9.57532 16.9717 9.70782 16.9813 9.83938C15.3896 10.4225 14.01 11.4708 13.0217 12.848C12.027 11.3592 10.8113 10.3636 9.38453 9.87625C7.85203 9.33782 4.68485 9.20438 2.41672 12.0861C1.4211 13.3514 1.82766 14.8419 2.71547 15.6009C3.21248 16.0254 3.85545 16.2392 4.50766 16.197C5.15988 16.1547 5.76989 15.8597 6.20797 15.3747C6.24094 15.3406 6.28641 15.2905 6.34125 15.2319C6.4225 15.1439 6.63532 14.9139 6.71938 14.8306L6.73547 14.8173C6.88351 14.7098 7.05386 14.6369 7.23389 14.6041C7.41392 14.5714 7.59902 14.5795 7.77547 14.628C9.22578 15.1439 10.417 18.9425 10.6864 21.3842C10.8264 22.6675 11.9155 23.7152 13.1739 23.7152H13.2173C13.2173 23.7152 16.9169 24.0152 16.9992 21.1288C17.0256 23.8808 25.1139 23.7738 25.1139 23.7738C26.2956 23.782 27.4759 23.687 28.6413 23.4898C29.159 23.4025 29.665 23.2558 30.1492 23.0527C31.8567 22.2956 31.9891 21.0464 31.9891 20.6242C31.9891 20.2022 31.8614 18.7552 30.1539 17.9972ZM7.74047 14.6148L7.76235 14.6214L7.77453 14.6261L7.74047 14.6148Z" fill="white"/>
</mask>
<g mask="url(#mask0_1_41)">
<path d="M30.1539 17.9972L30.2173 17.8544L30.2159 17.8538L30.2144 17.8531L30.1539 17.9972ZM28.6459 17.5598L28.6183 17.7138L28.62 17.7141L28.6459 17.5598ZM26.7192 17.3281L26.6864 17.1753L26.7097 17.4841L26.7192 17.3281ZM16.9813 9.83938L17.035 9.98625L17.1455 9.94563L17.137 9.82813L16.9813 9.83938ZM13.0217 12.848L12.8917 12.9347L13.017 13.1222L13.1486 12.9391L13.0217 12.848ZM9.38438 9.87625L9.33266 10.0238L9.33391 10.0242L9.38438 9.87625ZM6.20797 15.3747L6.09579 15.2659L6.09391 15.268L6.09204 15.27L6.20797 15.3747ZM6.34125 15.2319L6.45532 15.3386L6.45594 15.3378L6.34125 15.2319ZM6.71938 14.8306L6.62 14.71L6.61454 14.7145L6.60954 14.7195L6.71938 14.8306ZM6.73547 14.8173L6.6436 14.6908L6.63985 14.6938L6.6361 14.6969L6.73547 14.8173ZM7.77547 14.628L7.82782 14.4808L7.82235 14.4789L7.81688 14.4773L7.77547 14.628ZM10.6864 21.3842L10.8417 21.3674V21.367L10.6864 21.3842ZM13.2173 23.7152L13.23 23.5594L13.2238 23.5589H13.2175L13.2173 23.7152ZM16.9992 21.1288L17.1555 21.1272L16.843 21.1242L16.9992 21.1288ZM25.1139 23.7738L25.115 23.6175H25.1117L25.1139 23.7738ZM28.6413 23.4899L28.6153 23.3358H28.6152L28.6413 23.4899ZM30.1492 23.0527L30.2097 23.1967L30.2111 23.1961L30.2127 23.1955L30.1492 23.0527ZM7.74047 14.6148L7.78594 14.4653L7.69094 14.763L7.74047 14.6148ZM7.76235 14.6214L7.81829 14.4756L7.81313 14.4736L7.80766 14.472L7.76235 14.6214ZM7.77454 14.6261L7.725 14.7744L7.83063 14.4803L7.77454 14.6261ZM30.2144 17.8531C29.7191 17.6453 29.2016 17.4952 28.672 17.4058L28.62 17.7141C29.126 17.7994 29.6204 17.9427 30.0936 18.1413L30.2144 17.8531ZM28.6738 17.4061C28.0305 17.2902 27.3811 17.212 26.7288 17.172L26.7097 17.4841C27.3498 17.5231 27.987 17.5998 28.6183 17.7138L28.6738 17.4061ZM26.752 17.4808C28.2683 17.155 29.6613 16.4065 30.7698 15.3219L30.5513 15.0984C29.485 16.1419 28.145 16.8619 26.6864 17.1753L26.752 17.4808ZM30.7698 15.3219C31.8788 14.2367 32.6582 12.8598 33.0178 11.3505L32.7138 11.2781C32.3678 12.7301 31.6181 14.0546 30.5513 15.0984L30.7698 15.3219ZM33.0178 11.3505C33.3777 9.84085 33.3033 8.26023 32.8031 6.7911L32.5073 6.89188C32.9885 8.30524 33.06 9.82584 32.7138 11.2781L33.0178 11.3505ZM32.8031 6.7911C32.3033 5.32231 31.3981 4.02493 30.192 3.04891L29.9955 3.29188C31.1557 4.23081 32.0265 5.47889 32.5073 6.89188L32.8031 6.7911ZM30.192 3.04891C28.9865 2.07337 27.5293 1.45925 25.9892 1.27766L25.9527 1.58813C27.4341 1.7628 28.8358 2.35351 29.9955 3.29188L30.192 3.04891ZM25.9892 1.27782C24.4492 1.09637 22.8894 1.35495 21.4903 2.0236L21.625 2.30547C22.9708 1.66235 24.4713 1.41369 25.9527 1.58829L25.9892 1.27782ZM21.4903 2.0236C20.0908 2.69257 18.9092 3.74404 18.0822 5.05641L18.3466 5.22297C19.142 3.96042 20.2787 2.94887 21.625 2.30532L21.4903 2.02344V2.0236ZM18.0822 5.05641C17.2549 6.36928 16.8158 7.88917 16.8155 9.44094L17.128 9.4411C17.1283 7.94827 17.5507 6.48597 18.3466 5.22297L18.0822 5.05641ZM16.8155 9.44094C16.8155 9.57438 16.8155 9.71266 16.8253 9.85079L17.137 9.82844C17.1281 9.70344 17.128 9.57657 17.128 9.4411L16.8155 9.44094ZM16.9275 9.69282C15.3064 10.2867 13.9013 11.3543 12.8947 12.7569L13.1486 12.9391C14.1187 11.5873 15.4728 10.5586 17.035 9.98625L16.9275 9.69282ZM13.1516 12.7611C12.1417 11.2497 10.9002 10.2289 9.43516 9.72844L9.33391 10.0242C10.7222 10.4984 11.9122 11.4689 12.8917 12.9347L13.1516 12.7611ZM9.43641 9.72891C7.86141 9.17547 4.61547 9.03985 2.29391 11.9895L2.53954 12.1827C4.75422 9.36891 7.8425 9.50016 9.33266 10.0238L9.43641 9.72891ZM2.29391 11.9895C1.23922 13.3298 1.67172 14.9142 2.61391 15.7197L2.81688 15.4822C1.98344 14.7697 1.60297 13.3728 2.53954 12.1827L2.29391 11.9895ZM2.61391 15.7197C3.14173 16.1707 3.82469 16.398 4.5175 16.3531L4.49719 16.0413C3.88559 16.0808 3.2827 15.8801 2.81672 15.482L2.61391 15.7197ZM4.5175 16.3531C5.21037 16.3082 5.85838 15.9948 6.32375 15.4795L6.09204 15.27C5.68123 15.7249 5.10901 16.0016 4.49735 16.0413L4.5175 16.3531ZM6.31985 15.4836C6.35422 15.4483 6.40344 15.3941 6.45532 15.3386L6.22704 15.1252C6.16922 15.1869 6.1275 15.233 6.09579 15.2658L6.31985 15.4836ZM6.45594 15.3378C6.53876 15.2483 6.74813 15.0217 6.82922 14.9416L6.60954 14.7195C6.52204 14.8059 6.30625 15.0394 6.22625 15.1258L6.45594 15.3378ZM6.8186 14.9511L6.83469 14.938L6.63594 14.6967L6.62 14.71L6.8186 14.9511ZM6.82719 14.9438C6.95626 14.85 7.10477 14.7864 7.26172 14.7578L7.20579 14.4505C7.00266 14.4873 6.81047 14.5695 6.64344 14.6909L6.82719 14.9438ZM7.26172 14.7578C7.4187 14.7293 7.58008 14.7364 7.73391 14.7788L7.81688 14.4773C7.61783 14.4227 7.40887 14.4135 7.20579 14.4505L7.26172 14.7578ZM7.72297 14.7753C8.03891 14.8877 8.36172 15.1888 8.67516 15.6463C8.98594 16.0997 9.27407 16.6873 9.52797 17.3405C10.0358 18.6469 10.3977 20.1938 10.5311 21.4014L10.8417 21.367C10.7056 20.1331 10.337 18.5597 9.81922 17.2273C9.56032 16.5613 9.26204 15.9498 8.93297 15.4695C8.60672 14.9934 8.23704 14.6264 7.82782 14.4808L7.72297 14.7753ZM10.5309 21.4011C10.6788 22.7564 11.8284 23.8714 13.1738 23.8714V23.5589C12.0022 23.5589 10.9739 22.5786 10.8417 21.3674L10.5309 21.4011ZM13.1738 23.8714H13.2172V23.5589H13.1738V23.8714ZM13.2172 23.7152L13.2047 23.8709H13.2058L13.2083 23.8711L13.2172 23.8717L13.2502 23.8738C13.2788 23.8753 13.3202 23.8772 13.3723 23.8786C13.477 23.8813 13.6258 23.8817 13.8042 23.873C14.1602 23.8556 14.6391 23.8017 15.123 23.6538C15.6064 23.5059 16.1038 23.2619 16.4867 22.8581C16.8728 22.4513 17.1336 21.8916 17.1552 21.1331L16.843 21.1242C16.8234 21.8091 16.5908 22.2944 16.26 22.643C15.9263 22.9948 15.4834 23.2169 15.0316 23.3548C14.5803 23.4928 14.1291 23.5442 13.7889 23.5608C13.6528 23.5675 13.5165 23.5694 13.3803 23.5663C13.3307 23.565 13.2811 23.5627 13.2316 23.5595L13.23 23.5594L13.2173 23.7152H13.2172ZM16.8428 21.1302C16.8503 21.9091 17.4305 22.458 18.2088 22.8431C18.9922 23.2306 20.0242 23.4781 21.042 23.6377C22.0625 23.7975 23.0806 23.8705 23.8427 23.9036C24.2239 23.9202 24.5417 23.9269 24.7644 23.9292C24.8756 23.9305 24.9633 23.9306 25.0231 23.9306L25.0917 23.9303L25.1095 23.9302L25.1141 23.93H25.1156L25.1138 23.7738L25.1117 23.6175H25.1114L25.1103 23.6177H25.1063L25.0892 23.6178L25.0225 23.6181C24.6336 23.6173 24.2448 23.6084 23.8563 23.5914C23.1009 23.5586 22.0953 23.4863 21.0905 23.3289C20.083 23.1711 19.088 22.9294 18.3473 22.563C17.6016 22.1941 17.1611 21.7244 17.1555 21.1272L16.8428 21.1302ZM25.1127 23.93C26.3036 23.9383 27.4928 23.8427 28.6672 23.6439L28.6152 23.3358C27.4589 23.5315 26.2877 23.6257 25.115 23.6175L25.1127 23.93ZM28.6672 23.6439C29.1968 23.5546 29.7145 23.4046 30.2097 23.1967L30.0886 22.9086C29.6155 23.1071 29.1211 23.2504 28.6152 23.3358L28.6672 23.6439ZM30.2127 23.1955C31.0963 22.8036 31.5831 22.2788 31.847 21.7867C32.1095 21.297 32.1452 20.8514 32.1452 20.6242H31.8327C31.8327 20.8192 31.802 21.2092 31.5716 21.6391C31.3423 22.0664 30.9095 22.5445 30.0858 22.9098L30.2127 23.1955ZM32.1452 20.6242C32.1452 20.1752 32.0072 18.6491 30.2172 17.8544L30.0905 18.14C31.7153 18.8614 31.8327 20.2292 31.8327 20.6242H32.1452ZM7.68032 14.7591L7.68985 14.763L7.69016 14.7631C7.69016 14.7631 7.60641 14.5589 7.81063 14.4748C7.80563 14.4727 7.81454 14.4764 7.80907 14.4742L7.80375 14.4719L7.80157 14.4709C7.79266 14.4673 7.81 14.4745 7.8011 14.4709L7.80079 14.4706L7.74047 14.6148L7.68032 14.7591L7.68079 14.7592C7.67969 14.7588 7.68204 14.7597 7.68079 14.7592L7.68125 14.7594L7.6836 14.7603L7.68891 14.7625L7.69016 14.7631C7.89454 14.6792 7.81063 14.4748 7.81063 14.4748L7.81016 14.4745L7.80079 14.4706L7.68032 14.7591ZM7.69501 14.7642L7.71672 14.7709L7.80766 14.472L7.78594 14.4653L7.69501 14.7642ZM7.70594 14.7673L7.71844 14.772L7.83063 14.4803L7.81829 14.4756L7.70594 14.7673ZM7.82391 14.478L7.78985 14.4666L7.69094 14.763L7.725 14.7744L7.82391 14.478Z" fill="black"/>
</g>
<path d="M13.1342 21.1103C13.1342 21.1103 12.7561 13.6728 18.1536 12.0611M8.47611 12.2458C12.2797 13.5319 13.0955 21.1105 13.0955 21.1105M5.90079 12.365C6.3533 12.1624 6.8439 12.0588 7.3397 12.0612M4.29642 13.6381C4.51294 13.3737 4.75488 13.1312 5.01876 12.9141M24.9408 15C28.0075 15 30.4935 12.5117 30.4935 9.44203C30.4935 6.37234 28.0075 3.8839 24.9408 3.8839C21.8742 3.8839 19.3883 6.37234 19.3883 9.44203C19.3883 12.5117 21.8742 15 24.9408 15Z" stroke="black" stroke-width="0.15625" stroke-linecap="round" stroke-linejoin="round"/>
<path d="M24.9455 21.4516C27.4038 21.4516 29.3966 21.0775 29.3966 20.6159C29.3966 20.1544 27.4038 19.7803 24.9455 19.7803C22.4872 19.7803 20.4944 20.1544 20.4944 20.6159C20.4944 21.0775 22.4872 21.4516 24.9455 21.4516Z" fill="black" stroke="black" stroke-width="0.15625" stroke-linecap="round" stroke-linejoin="round"/>
<path d="M27.7498 6.2536C27.2455 5.79801 26.6361 5.47451 25.9762 5.312C25.3163 5.14949 24.6263 5.15304 23.9681 5.32235M28.6072 7.34922C28.5287 7.20356 28.4413 7.06292 28.3453 6.92813" stroke="black" stroke-width="0.15625" stroke-linecap="round" stroke-linejoin="round"/>
<path d="M26.8753 12.16C27.3008 12.7988 26.6342 13.2075 26.6342 13.2075C25.8677 13.6642 24.9622 13.8289 24.084 13.6715C23.2058 13.514 22.4139 13.0449 21.8539 12.3503C21.4824 11.8899 21.2264 11.3473 21.1072 10.7678C22.0289 11.3613 22.2578 11.2475 23.2269 11.1898C24.1959 11.132 24.4144 11.8808 24.3906 12.2489C24.3906 12.2489 26.3051 11.3045 26.8753 12.16Z" fill="black" stroke="black" stroke-width="0.15625" stroke-linecap="round" stroke-linejoin="round"/>
</svg>
