<svg width="16" height="16" viewBox="0 0 16 16" fill="none" xmlns="http://www.w3.org/2000/svg">
<path d="M8.00008 1.49927C4.41601 1.49927 1.50008 4.4152 1.50008 7.99927C1.50008 11.5833 4.41601 14.4993 8.00008 14.4993C11.5841 14.4993 14.5001 11.5833 14.5001 7.99927C14.5001 4.4152 11.5841 1.49927 8.00008 1.49927ZM6.4307 5.14989C6.82664 4.7302 7.38383 4.49927 8.00008 4.49927C8.61633 4.49927 9.16851 4.73177 9.56601 5.15364C9.96882 5.58114 10.1648 6.15552 10.1185 6.77302C10.026 7.99927 9.07601 8.99927 8.00008 8.99927C6.92414 8.99927 5.97226 7.99927 5.88164 6.7727C5.8357 6.1502 6.03133 5.57395 6.4307 5.14989ZM8.00008 13.4993C7.26585 13.4998 6.539 13.3528 5.86263 13.0671C5.18625 12.7814 4.57414 12.3628 4.06258 11.8361C4.35556 11.4183 4.72887 11.0631 5.1607 10.7911C5.95726 10.2805 6.96539 9.99927 8.00008 9.99927C9.03476 9.99927 10.0429 10.2805 10.8385 10.7911C11.2707 11.0629 11.6443 11.4182 11.9376 11.8361C11.4261 12.3629 10.8139 12.7815 10.1376 13.0672C9.46119 13.3529 8.73432 13.4998 8.00008 13.4993Z" fill="white" fill-opacity="0.8"/>
</svg>
