<svg width="16" height="16" viewBox="0 0 16 16" fill="none" xmlns="http://www.w3.org/2000/svg">
<path fill-rule="evenodd" clip-rule="evenodd" d="M0.666664 2.66671C0.666664 1.93033 1.26362 1.33337 2 1.33337H14C14.7364 1.33337 15.3333 1.93033 15.3333 2.66671V4.66671C15.3333 5.40309 14.7364 6.00004 14 6.00004H2C1.26362 6.00004 0.666664 5.40309 0.666664 4.66671V2.66671ZM14 2.66671H2V4.66671H14V2.66671Z" fill="white" fill-opacity="0.8"/>
<path fill-rule="evenodd" clip-rule="evenodd" d="M2.66667 4.66663C3.03486 4.66663 3.33333 4.9651 3.33333 5.33329V12.6666C3.33333 12.8434 3.40357 13.013 3.5286 13.138C3.65362 13.2631 3.82319 13.3333 4 13.3333H12C12.1768 13.3333 12.3464 13.2631 12.4714 13.138C12.5964 13.013 12.6667 12.8434 12.6667 12.6666V5.33329C12.6667 4.9651 12.9651 4.66663 13.3333 4.66663C13.7015 4.66663 14 4.9651 14 5.33329V12.6666C14 13.1971 13.7893 13.7058 13.4142 14.0808C13.0391 14.4559 12.5304 14.6666 12 14.6666H4C3.46957 14.6666 2.96086 14.4559 2.58579 14.0808C2.21071 13.7058 2 13.1971 2 12.6666V5.33329C2 4.9651 2.29848 4.66663 2.66667 4.66663Z" fill="white" fill-opacity="0.8"/>
<path fill-rule="evenodd" clip-rule="evenodd" d="M6 8.00004C6 7.63185 6.29848 7.33337 6.66667 7.33337H9.33333C9.70152 7.33337 10 7.63185 10 8.00004C10 8.36823 9.70152 8.66671 9.33333 8.66671H6.66667C6.29848 8.66671 6 8.36823 6 8.00004Z" fill="white" fill-opacity="0.8"/>
</svg>
