<svg width="35" height="25" viewBox="0 0 35 25" fill="none" xmlns="http://www.w3.org/2000/svg">
<path d="M29.2341 6.26325C29.0474 4.68591 28.2384 3.53794 27.015 3.11747C26.3641 2.89665 25.6575 2.90293 25.0106 3.13528C24.677 2.28154 24.0554 1.57126 23.2534 1.12732C22.5731 0.750552 21.7964 0.58386 21.0214 0.648296C20.2464 0.712732 19.5078 1.00541 18.8991 1.48935C18.2905 1.97321 17.839 2.6267 17.6019 3.36716L17.497 3.69419H17.1209C16.7299 3.69573 16.3432 3.77664 15.9843 3.93201C15.6254 4.08738 15.3017 4.31399 15.033 4.5981C14.4947 4.28446 13.8755 4.13763 13.2537 4.17621C12.632 4.21479 12.0357 4.43704 11.5403 4.81482C11.0453 5.19245 10.6735 5.70859 10.4721 6.2978C10.2708 6.887 10.249 7.52272 10.4094 8.12435L8.3297 10.8675C7.55056 10.9691 6.83763 11.3585 6.3311 11.9592C5.82471 12.5597 5.5615 13.328 5.59331 14.1128C5.62512 14.8977 5.94965 15.6421 6.50298 16.1997C7.05653 16.7574 7.79872 17.0879 8.5836 17.1261L9.60657 18.3754H9.12626C8.53491 18.3762 7.96798 18.6113 7.5497 19.0293C7.13153 19.4472 6.89624 20.0138 6.89548 20.605V22.257C6.89548 22.5272 6.94875 22.7948 7.05224 23.0445C7.15572 23.2941 7.3074 23.5209 7.4986 23.7118C7.88474 24.0976 8.40824 24.3143 8.95407 24.3143H18.6442C19.1901 24.3144 19.7137 24.0977 20.0999 23.7118C20.291 23.5208 20.4426 23.2941 20.5461 23.0444C20.6496 22.7948 20.7028 22.5272 20.7028 22.257V20.605C20.702 20.0139 20.4667 19.4472 20.0486 19.0293C19.6303 18.6113 19.0634 18.3762 18.472 18.3754H14.9258L11.8242 14.5865C11.9177 14.1086 11.8985 13.6155 11.768 13.1464L12.0233 12.8089C12.5629 14.0436 13.4231 15.1113 14.5147 15.9012C15.3314 16.4922 16.2582 16.9138 17.2404 17.1411C18.2225 17.3684 19.2403 17.3968 20.2336 17.2247C21.227 17.0526 22.1758 16.6834 23.0243 16.1389C23.8727 15.5945 24.6036 14.8857 25.1739 14.0543C25.7914 13.8597 26.3947 13.4797 26.9442 12.9242C27.7045 12.154 28.3558 11.0554 28.777 9.82997C29.1983 8.6045 29.3595 7.33778 29.2341 6.26325Z" fill="#90A8ED" stroke="black" stroke-width="0.15625" stroke-miterlimit="10"/>
<path d="M9.27249 13.0102L12.888 8.23906M9.41249 14.8691L13.8355 20.2717M16.1439 7.29187H14.5375M13.4492 8.38125V9.76718C13.4493 10.4883 13.5915 11.2023 13.8677 11.8684C14.1438 12.5345 14.5485 13.1397 15.0586 13.6494C16.089 14.6791 17.4861 15.2575 18.9428 15.2577C19.9537 15.2582 20.9451 14.9798 21.8078 14.453C22.6704 13.9264 23.3708 13.1719 23.8317 12.2725M13.4492 8.37984C13.5921 8.37988 13.7336 8.35178 13.8656 8.29714C13.9976 8.24251 14.1176 8.1624 14.2186 8.0614C14.3197 7.96041 14.3998 7.84049 14.4546 7.70851C14.5093 7.57653 14.5375 7.43506 14.5375 7.29218C14.5375 7.14931 14.5093 7.00784 14.4546 6.87586C14.3998 6.74388 14.3197 6.62396 14.2186 6.52297C14.1176 6.42197 13.9976 6.34186 13.8656 6.28723C13.7336 6.23259 13.5921 6.20449 13.4492 6.20453C13.3063 6.20449 13.1649 6.23259 13.0328 6.28723C12.9008 6.34186 12.7809 6.42197 12.6798 6.52297C12.5788 6.62396 12.4986 6.74388 12.4439 6.87586C12.3892 7.00784 12.361 7.14931 12.3609 7.29218C12.361 7.43506 12.3892 7.57653 12.4439 7.70851C12.4986 7.84049 12.5788 7.96041 12.6798 8.0614C12.7809 8.1624 12.9008 8.24251 13.0328 8.29714C13.1649 8.35178 13.3063 8.37988 13.4492 8.37984ZM8.73593 15.0516C9.02442 15.0516 9.30112 14.9371 9.50517 14.7331C9.70923 14.5292 9.82393 14.2526 9.82405 13.9641C9.82403 13.8212 9.79587 13.6797 9.74116 13.5477C9.68646 13.4157 9.60629 13.2958 9.50523 13.1947C9.40417 13.0937 9.2842 13.0136 9.15218 12.959C9.02016 12.9043 8.87866 12.8762 8.73577 12.8762C8.5929 12.8762 8.45142 12.9043 8.3194 12.9589C8.18739 13.0136 8.06743 13.0937 7.96637 13.1947C7.86531 13.2957 7.78514 13.4156 7.73043 13.5476C7.67571 13.6796 7.64753 13.821 7.64749 13.9639C7.64753 14.1068 7.67571 14.2482 7.73043 14.3802C7.78514 14.5122 7.86531 14.6321 7.96637 14.7331C8.06743 14.8341 8.18739 14.9142 8.3194 14.9689C8.45142 15.0235 8.59305 15.0516 8.73593 15.0516ZM9.12843 20.4127H18.472C18.5176 20.4127 18.5616 20.4308 18.5939 20.463C18.6261 20.4953 18.6442 20.5391 18.6442 20.5847V22.2355H8.95609V20.5847C8.95611 20.5621 8.96058 20.5397 8.96925 20.5188C8.97792 20.4979 8.99062 20.479 9.00663 20.463C9.02263 20.447 9.04162 20.4343 9.06252 20.4257C9.08342 20.4171 9.10582 20.4126 9.12843 20.4127Z" stroke="black" stroke-width="0.15625" stroke-linecap="round" stroke-linejoin="round"/>
<path d="M26.8306 9.1303C27.498 7.18811 27.2808 5.35327 26.3456 5.03249C25.4105 4.71155 24.1114 6.02593 23.4442 7.96811C22.7769 9.91046 22.9941 11.7451 23.9292 12.0659C24.8644 12.3869 26.1634 11.0725 26.8306 9.1303Z" fill="black" stroke="black" stroke-width="0.15625" stroke-linecap="round" stroke-linejoin="round"/>
<path d="M18.1064 8.51466L17.1375 8.50716C16.662 8.50716 16.2839 8.23278 16.2914 7.73356C16.2991 7.26169 16.662 7.02513 17.1375 7.02513H19.9803C20.1555 7.02509 20.3235 6.9555 20.4474 6.83165C20.5713 6.70781 20.641 6.53984 20.6411 6.36466C20.6412 6.27794 20.6241 6.19205 20.5909 6.11193C20.5577 6.03182 20.509 5.95904 20.4477 5.89778C20.3237 5.77393 20.1556 5.70436 19.9803 5.70435L17.132 5.72903C17.0222 5.72891 16.9135 5.75042 16.8121 5.79235C16.7106 5.83427 16.6184 5.89577 16.5407 5.97335C16.463 6.05093 16.4014 6.14305 16.3593 6.24446C16.3173 6.34586 16.2956 6.45456 16.2956 6.56435V7.79122" stroke="black" stroke-width="0.15625" stroke-linecap="round" stroke-linejoin="round"/>
<path d="M19.0033 5.70471L19.5639 3.95315C19.7161 3.48049 20.0497 3.08758 20.4914 2.86081C20.9333 2.63394 21.4472 2.59168 21.9202 2.74331C22.3934 2.89468 22.7871 3.2278 23.0147 3.6694C23.1273 3.88797 23.1958 4.12661 23.2162 4.37166C23.2365 4.61671 23.2083 4.86337 23.1333 5.09753L21.6499 9.73221C21.4977 10.2052 21.1642 10.5986 20.7225 10.826C20.2807 11.0534 19.7668 11.0963 19.2934 10.9453C18.8203 10.7938 18.4267 10.4607 18.1991 10.0191C17.9715 9.57749 17.9285 9.06359 18.0797 8.59034L18.5784 7.033M20.508 6.81096L22.3902 7.42675" stroke="black" stroke-width="0.15625" stroke-linecap="round" stroke-linejoin="round"/>
<path d="M23.2128 4.72702C23.135 4.74311 23.0544 4.73858 22.9789 4.71389C22.8782 4.6814 22.7915 4.61548 22.7333 4.52705C22.6751 4.43861 22.6488 4.33296 22.6588 4.22757C22.6688 4.12217 22.7145 4.02335 22.7883 3.94745C22.8621 3.87154 22.9596 3.8231 23.0647 3.81014M20.2802 3.01093C20.3242 3.09239 20.3429 3.18514 20.3339 3.2773C20.3249 3.36946 20.2885 3.45683 20.2296 3.52821C20.1706 3.5996 20.0916 3.65175 20.0028 3.67798C19.914 3.70421 19.8194 3.70333 19.7311 3.67546M20.6128 6.08483C20.7007 6.08713 20.7861 6.1143 20.8591 6.16317C20.9321 6.21205 20.9898 6.28063 21.0254 6.36097C21.0611 6.4413 21.0732 6.5301 21.0604 6.61704C21.0476 6.70398 21.0104 6.78552 20.9531 6.85218M21.7822 7.20967C21.7523 7.11782 21.7523 7.01887 21.7822 6.92702C21.8082 6.8469 21.8554 6.77532 21.9188 6.71991C21.9822 6.6645 22.0595 6.62733 22.1423 6.61235C22.2252 6.59738 22.3106 6.60516 22.3894 6.63487C22.4682 6.66458 22.5375 6.71511 22.5898 6.78108M21.4961 4.21749C21.5579 4.21865 21.6193 4.20749 21.6767 4.18465C21.7341 4.16182 21.7865 4.12777 21.8306 4.08449C21.8747 4.04122 21.9097 3.98958 21.9337 3.9326C21.9576 3.87563 21.97 3.81445 21.97 3.75265C21.97 3.69085 21.9578 3.62966 21.9339 3.57266C21.91 3.51565 21.875 3.46398 21.8309 3.42066C21.7868 3.37734 21.7346 3.34324 21.6772 3.32035C21.6197 3.29745 21.5584 3.28623 21.4966 3.28733C21.3747 3.2895 21.2585 3.33943 21.1731 3.42636C21.0877 3.51329 21.0398 3.63029 21.0397 3.75218C21.0396 3.87407 21.0874 3.99112 21.1728 4.07813C21.2581 4.16515 21.3742 4.21519 21.4961 4.21749ZM21.8844 5.89093C21.9455 5.89096 22.006 5.87895 22.0624 5.85561C22.1188 5.83226 22.1701 5.79802 22.2134 5.75485C22.2566 5.71168 22.2909 5.66042 22.3143 5.60399C22.3377 5.54757 22.3497 5.48709 22.3498 5.426C22.3498 5.36492 22.3378 5.30443 22.3144 5.24798C22.2911 5.19153 22.2569 5.14023 22.2137 5.09702C22.1705 5.0538 22.1193 5.01952 22.0628 4.99611C22.0064 4.97271 21.9459 4.96064 21.8848 4.96061C21.7615 4.96055 21.6431 5.0095 21.5559 5.09669C21.4686 5.18388 21.4195 5.30217 21.4195 5.42553C21.4194 5.5489 21.4683 5.66724 21.5555 5.75452C21.6427 5.8418 21.761 5.89086 21.8844 5.89093ZM20.2603 5.37108C20.3523 5.37102 20.4422 5.34369 20.5186 5.29255C20.595 5.24141 20.6546 5.16876 20.6897 5.08378C20.7249 4.99879 20.734 4.9053 20.716 4.81512C20.698 4.72493 20.6537 4.64211 20.5886 4.57711C20.5236 4.51212 20.4407 4.46787 20.3505 4.44997C20.2603 4.43208 20.1668 4.44132 20.0819 4.47655C19.9969 4.51178 19.9243 4.5714 19.8733 4.64789C19.8222 4.72437 19.795 4.81428 19.795 4.90624C19.7951 5.02958 19.8441 5.14784 19.9314 5.23501C20.0187 5.32218 20.137 5.37112 20.2603 5.37108Z" stroke="black" stroke-width="0.15625" stroke-linecap="round" stroke-linejoin="round"/>
</svg>
