<svg width="35" height="25" viewBox="0 0 35 25" fill="none" xmlns="http://www.w3.org/2000/svg">
<g clip-path="url(#clip0_1_139)">
<mask id="mask0_1_139" style="mask-type:luminance" maskUnits="userSpaceOnUse" x="0" y="0" width="35" height="25">
<path d="M0 0H35V25H0V0Z" fill="white"/>
</mask>
<g mask="url(#mask0_1_139)">
<path d="M21.0459 0.881718C20.2321 0.537977 19.3408 0.419708 18.4655 0.539333C17.5902 0.658957 16.7633 1.01206 16.0716 1.56156C15.3798 2.11112 14.8488 2.83686 14.5345 3.66252C14.2201 4.48818 14.1339 5.38328 14.285 6.25375L14.5263 8.20578L12.9131 7.03422C12.0361 6.33343 10.9463 5.95263 9.82368 5.95464C8.70105 5.95666 7.61265 6.34138 6.73813 7.04531C5.98199 7.65735 5.42434 8.47989 5.13573 9.40889C4.84712 10.3379 4.8405 11.3316 5.11672 12.2644C5.39287 13.1972 5.93937 14.0271 6.68714 14.6493C7.43492 15.2716 8.35038 15.6581 9.31781 15.7602C9.96011 15.828 10.6095 15.7685 11.2288 15.5853C11.8481 15.402 12.4252 15.0985 12.9272 14.692L12.9783 14.6498C13.0136 14.6288 13.0461 14.6028 13.0788 14.5769C13.3469 14.3653 13.5561 14.2719 13.6897 14.2495C13.8681 14.3259 13.9913 14.3892 14.0478 14.4194L15.2931 15.26L15.9166 21.3681C16.0221 22.2984 16.4912 23.1493 17.2216 23.7352C17.9456 24.3159 18.8684 24.5897 19.792 24.4977C20.2245 24.4532 20.6219 24.2397 20.8977 23.9036C21.1735 23.5675 21.3054 23.1361 21.2647 22.7033L20.9228 19.0611L23.945 21.1014C24.3042 21.344 24.7445 21.4355 25.1706 21.3559C25.5967 21.2764 25.9744 21.0323 26.2219 20.6764C26.7489 19.9124 26.9555 18.9723 26.7974 18.0577C26.6393 17.1431 26.1291 16.3269 25.3763 15.7841C25.3703 15.7794 25.3638 15.775 25.3572 15.7705L20.3322 12.2859L20.2016 10.8164C20.2019 10.7559 20.2052 10.6161 20.225 10.4227C20.3092 10.317 20.4922 10.1784 20.8066 10.0464C20.8453 10.0305 20.8828 10.013 20.9194 9.99406L20.9811 9.96984C21.6547 9.69604 22.2592 9.27631 22.7511 8.74086C23.243 8.20542 23.6101 7.56757 23.8259 6.87323C24.0418 6.1789 24.101 5.44535 23.9993 4.72538C23.8977 4.00542 23.6376 3.31695 23.238 2.70953C22.7034 1.89694 21.94 1.26104 21.0442 0.882187L21.0459 0.881718Z" fill="#F1F333" stroke="black" stroke-width="0.15625" stroke-miterlimit="10"/>
<path d="M11.9353 8.38828C11.578 8.0947 11.1625 7.88024 10.7163 7.75907C10.27 7.6379 9.80311 7.61278 9.34641 7.68536C8.88972 7.75794 8.45361 7.92657 8.06689 8.18012C7.68017 8.43367 7.35164 8.76637 7.10298 9.15625C6.8543 9.54624 6.6912 9.98455 6.62446 10.4422C6.55772 10.8999 6.58884 11.3666 6.71579 11.8113C6.84273 12.2561 7.06261 12.6689 7.36088 13.0224C7.65915 13.3759 8.02904 13.6621 8.4461 13.862C9.00369 14.1294 9.62569 14.2332 10.2399 14.1613C10.8541 14.0894 11.4353 13.8448 11.9161 13.4559C11.9728 13.4097 12.028 13.3616 12.0817 13.3119L12.0827 13.3286C12.8483 12.7239 13.4942 12.598 13.9845 12.6514L15.1205 10.6973L11.9356 8.38843L11.9353 8.38828ZM8.44001 12.063C8.26816 11.8504 8.14559 11.6023 8.08111 11.3366C8.01663 11.071 8.01185 10.7943 8.0671 10.5266C8.12236 10.2589 8.23629 10.0067 8.40068 9.78831C8.56507 9.56989 8.77584 9.39063 9.01782 9.26343C9.25983 9.13626 9.52703 9.06433 9.80019 9.05284C10.0733 9.04135 10.3456 9.09058 10.5975 9.19698C10.8493 9.30338 11.0744 9.46431 11.2566 9.66817C11.4387 9.87204 11.5734 10.1138 11.6509 10.3759C11.7547 10.7267 11.7521 11.1003 11.6434 11.4496C11.5348 11.7988 11.325 12.108 11.0407 12.338C10.7563 12.5681 10.4101 12.7086 10.0459 12.7419C9.68165 12.7752 9.31572 12.6997 8.99438 12.525C8.78094 12.409 8.59246 12.252 8.43969 12.0631L8.44001 12.063Z" fill="black" stroke="black" stroke-width="0.15625" stroke-linecap="round" stroke-linejoin="round"/>
<path d="M15.0322 10.6417L24.4414 17.172C24.8443 17.4603 25.1175 17.8957 25.2019 18.3838C25.2863 18.872 25.1751 19.3738 24.8924 19.7806L14.9416 13.0627C14.6137 12.8778 14.2692 12.7242 13.9125 12.6039L15.0322 10.6417Z" stroke="black" stroke-width="0.15625" stroke-linecap="round" stroke-linejoin="round"/>
<path d="M15.9442 6.05282C15.8316 5.44471 15.8938 4.81715 16.1236 4.24296C16.3533 3.66878 16.7412 3.17152 17.2422 2.80892C17.6169 2.53808 18.0448 2.34981 18.4977 2.25653C18.9505 2.16325 19.418 2.16708 19.8693 2.26777C20.3205 2.36845 20.7453 2.56371 21.1155 2.84064C21.4858 3.11758 21.7931 3.46989 22.0171 3.87433C22.2412 4.27877 22.3769 4.72613 22.4153 5.18688C22.4538 5.64763 22.3941 6.1113 22.2401 6.54727C22.0862 6.98324 21.8415 7.3816 21.5222 7.71606C21.203 8.05051 20.8165 8.31345 20.3881 8.48751C20.3203 8.51491 20.2515 8.53993 20.1819 8.56251L20.1964 8.57173C19.2964 8.94923 18.8738 9.45345 18.6848 9.9072L16.4264 9.95564L15.9442 6.05282ZM20.8498 4.77189C20.7121 4.43296 20.477 4.14245 20.1743 3.93704C19.8716 3.73164 19.5147 3.62056 19.1489 3.61782C18.6894 3.61412 18.245 3.78161 17.9022 4.08766C17.5594 4.39372 17.3428 4.81642 17.2946 5.27341C17.2465 5.73041 17.3702 6.18898 17.6416 6.55978C17.913 6.93057 18.3128 7.18705 18.763 7.27923C19.0609 7.3407 19.3694 7.32772 19.6611 7.24146C19.9528 7.1552 20.2187 6.99831 20.4353 6.7847C20.6957 6.52782 20.8741 6.19946 20.9479 5.84118C21.0217 5.48289 20.9876 5.11077 20.8498 4.77189Z" fill="black" stroke="black" stroke-width="0.15625" stroke-linecap="round" stroke-linejoin="round"/>
<path d="M18.7822 13.2077L18.5794 10.9453C18.5762 10.5691 18.6084 10.1933 18.6756 9.82312L16.4169 9.8539L16.6077 11.7208M16.8661 14.3806L17.5811 21.2451C17.6381 21.7373 17.8868 22.1872 18.2733 22.4973C18.6598 22.8073 19.1529 22.9524 19.6458 22.9012L18.9869 15.8778" stroke="black" stroke-width="0.15625" stroke-linecap="round" stroke-linejoin="round"/>
<path d="M18.1392 14.2969C18.2007 14.261 18.2544 14.2133 18.2973 14.1566C18.3401 14.0998 18.3713 14.0351 18.389 13.9662C18.4067 13.8973 18.4105 13.8256 18.4003 13.7552C18.3901 13.6848 18.366 13.6172 18.3294 13.5561C18.2928 13.4951 18.2445 13.442 18.1872 13.3998C18.1299 13.3576 18.0648 13.3272 17.9957 13.3104C17.9266 13.2935 17.8549 13.2906 17.7846 13.3016C17.7143 13.3127 17.647 13.3377 17.5864 13.375C17.466 13.4492 17.3797 13.5678 17.3462 13.7052C17.3127 13.8426 17.3347 13.9877 17.4074 14.109C17.4802 14.2303 17.5978 14.318 17.7348 14.3532C17.8717 14.3884 18.0171 14.3681 18.1392 14.2969Z" stroke="black" stroke-width="0.15625" stroke-miterlimit="10"/>
</g>
</g>
<defs>
<clipPath id="clip0_1_139">
<rect width="35" height="25" fill="white"/>
</clipPath>
</defs>
</svg>
