<svg width="35" height="25" viewBox="0 0 35 25" fill="none" xmlns="http://www.w3.org/2000/svg">
<g clip-path="url(#clip0_1_166)">
<mask id="mask0_1_166" style="mask-type:luminance" maskUnits="userSpaceOnUse" x="0" y="0" width="35" height="25">
<path d="M0 0H35V25H0V0Z" fill="white"/>
</mask>
<g mask="url(#mask0_1_166)">
<mask id="mask1_1_166" style="mask-type:luminance" maskUnits="userSpaceOnUse" x="3" y="0" width="29" height="26">
<path d="M3.4375 0H31.5469V25.0422H3.4375V0Z" fill="white"/>
</mask>
<g mask="url(#mask1_1_166)">
<path d="M29.0236 6.2906L28.9858 6.39763L29.0939 6.43279L29.0947 6.4331L29.0973 6.43388L29.1081 6.43748L29.1505 6.45185C29.3765 6.5309 29.5986 6.62048 29.8162 6.72029C30.2142 6.90357 30.6556 7.15373 30.8905 7.43279C31.3575 7.98795 31.3923 8.60123 31.4245 9.16545L31.4266 9.20248C31.4417 9.46812 31.4023 9.73406 31.3109 9.98393C31.2194 10.2338 31.0779 10.4623 30.8948 10.6554H30.8947L28.0741 13.6348L28.0737 13.635C27.8323 13.8915 27.6698 14.1897 27.5145 14.4745L27.4436 14.604C27.2628 14.9306 27.0731 15.2369 26.7589 15.4817C26.4433 15.7278 26.0862 15.8229 25.7141 15.9186L25.6902 15.9247C25.3317 16.0165 24.9555 16.1129 24.6398 16.3692C23.9598 16.9201 23.2187 17.6253 23.3822 18.6326C23.4326 18.9439 23.6175 19.1497 23.78 19.3248L23.7941 19.3398C23.9562 19.5147 24.0873 19.6558 24.1266 19.8542C24.1935 20.1943 24.1686 20.5461 24.0544 20.8734C23.9402 21.2007 23.7408 21.4916 23.4767 21.7162C23.2125 21.9412 22.8931 22.0919 22.5515 22.1529C22.2098 22.2138 21.8581 22.1828 21.5323 22.0629C21.2058 21.9429 20.7384 21.8756 20.2309 21.8847C19.7222 21.8937 19.1647 21.98 18.6569 22.174C18.3002 22.3106 18.03 22.4414 17.8275 22.6225C17.6214 22.8069 17.4928 23.0362 17.403 23.3545C17.3333 23.6015 17.2575 23.7915 17.152 23.9576C17.047 24.1233 16.9094 24.27 16.7098 24.4261C16.5094 24.5828 16.3336 24.6851 16.1477 24.7492C15.9619 24.8133 15.7602 24.8411 15.5055 24.8414C14.8891 24.8425 14.433 24.6128 14.0631 24.2129C13.7514 23.8756 13.6334 23.4929 13.5447 22.9484C13.4352 22.2773 12.9647 21.7411 12.3322 21.5273C11.7406 21.3275 11.2442 21.369 10.7573 21.5165C10.5161 21.5897 10.2772 21.6887 10.032 21.7959C9.96859 21.8236 9.905 21.8519 9.84046 21.8803C9.65453 21.9628 9.46312 22.0475 9.25921 22.1292C8.80022 22.3136 8.28843 22.3175 7.82671 22.14C7.36525 21.9628 6.98813 21.6172 6.7714 21.1729C6.55487 20.729 6.51499 20.2194 6.65984 19.7472C6.80484 19.2747 7.12362 18.8749 7.55187 18.6283L7.55343 18.6273C7.81475 18.4707 8.06096 18.2901 8.2889 18.0879L8.46625 17.9308L8.23187 17.8958L8.19875 17.8908L8.1975 17.8906C7.7142 17.8239 7.27327 17.5791 6.96125 17.204C6.70246 16.8929 6.54692 16.5089 6.51618 16.1053C6.48544 15.7018 6.58102 15.2986 6.78968 14.9519L6.85375 14.8453L6.74046 14.794C6.33315 14.6098 5.97846 14.3265 5.70875 13.97C5.48284 13.6716 5.32795 13.3257 5.25584 12.9585C5.18374 12.5913 5.19633 12.2125 5.29265 11.8509L5.31875 11.7526L5.22312 11.7183C4.9607 11.6236 4.71628 11.485 4.50031 11.3084L4.49953 11.3078C4.09212 10.9823 3.79529 10.5388 3.64968 10.0381C3.50425 9.5376 3.51724 9.00436 3.68687 8.51154C3.90778 7.89079 4.34577 7.37089 4.92 7.04779C5.43908 6.75699 6.02301 6.60154 6.61796 6.59576H6.62C6.73609 6.59263 6.85078 6.59654 6.96531 6.60388L7.09406 6.61201L7.08281 6.48357C7.07152 6.35513 7.06589 6.22626 7.06593 6.09732C7.06593 4.35045 8.09593 2.70279 9.91484 1.58279C11.4542 0.639041 13.4641 0.114197 15.5758 0.114197C17.6877 0.114197 19.6975 0.635759 21.2367 1.58279L21.2377 1.58326C21.583 1.79107 22.0094 2.21013 22.3553 2.58638C22.5571 2.80616 22.7522 3.03199 22.9403 3.26357L22.9487 3.2742L22.9509 3.27685L22.9514 3.27748L22.9516 3.27779L23.0197 3.36342L23.1064 3.29623H23.1066L23.1075 3.29545L23.1111 3.29263L23.1248 3.28217C23.1973 3.22685 23.27 3.17217 23.3433 3.1181C23.4752 3.02092 23.623 2.91623 23.7062 2.86967C23.9436 2.73714 24.2059 2.65551 24.4766 2.62998C24.7472 2.60445 25.0202 2.63558 25.2781 2.72138L27.8823 3.58763C28.145 3.6751 28.386 3.81735 28.5895 4.00496C28.7931 4.19257 28.9544 4.42127 29.063 4.67592C29.1713 4.93041 29.2242 5.20503 29.2183 5.48154C29.2153 5.61201 29.1691 5.81045 29.1195 5.98513C29.0925 6.07999 29.0631 6.17419 29.0316 6.26763L29.0256 6.28482L29.0241 6.28935L29.0237 6.29029L29.0236 6.2906Z" fill="#FF7051" stroke="black" stroke-width="0.15625"/>
<path d="M14.48 10.0839C14.8105 10.1142 15.1411 10.1307 15.4825 10.1307C19.1031 10.1307 22.038 8.32481 22.038 6.09715C22.038 3.8695 19.1031 2.06262 15.4825 2.06262C11.8617 2.06262 8.9278 3.86872 8.9278 6.097C8.9278 7.58215 10.2245 8.87262 12.1575 9.57403C12.1575 9.57403 12.3451 11.554 14.5403 11.8337C14.0808 10.6184 14.48 10.0839 14.48 10.0839Z" stroke="black" stroke-width="0.15625" stroke-linecap="round" stroke-linejoin="round"/>
<path d="M11.2625 7.26214C11.2625 7.26214 13.7236 7.06996 14.9436 5.64824C16.018 4.39355 14.4056 3.90089 13.5072 5.11027C12.6087 6.31996 13.2376 7.39652 14.8987 7.39652C16.6048 7.39652 17.9965 6.36605 18.5808 5.46918C19.1651 4.5723 17.8617 3.94527 17.0104 5.11027C16.332 6.03777 16.113 7.88996 18.7172 7.21746" stroke="black" stroke-width="0.15625" stroke-linecap="round" stroke-linejoin="round"/>
<path d="M24.5669 4.57233L23.6091 8.66639L25.2555 9.29342L27.1711 5.43873L24.5669 4.57233ZM23.642 11.4361C23.88 11.4361 24.1083 11.3417 24.2767 11.1736C24.36 11.0904 24.426 10.9917 24.4711 10.883C24.5162 10.7743 24.5394 10.6577 24.5394 10.5401C24.5394 10.4224 24.5162 10.3059 24.4711 10.1972C24.426 10.0885 24.36 9.9897 24.2767 9.90655C24.1083 9.7384 23.8801 9.64395 23.6421 9.64395C23.4041 9.64395 23.1759 9.7384 23.0075 9.90655C22.9242 9.98968 22.858 10.0884 22.8129 10.1972C22.7678 10.3059 22.7446 10.4224 22.7445 10.5401C22.7445 10.7776 22.8392 11.0058 23.0075 11.1737C23.1759 11.3418 23.4041 11.4361 23.642 11.4361ZM24.9106 14.1333C25.1486 14.1333 25.3769 14.0389 25.5453 13.8708C25.6286 13.7876 25.6947 13.6889 25.7399 13.5802C25.785 13.4714 25.8082 13.3549 25.8082 13.2372C25.8082 13.1195 25.785 13.0029 25.7399 12.8942C25.6947 12.7855 25.6286 12.6867 25.5453 12.6036C25.4197 12.4784 25.2599 12.3932 25.086 12.3587C24.9121 12.3242 24.7319 12.3419 24.568 12.4097C24.4042 12.4774 24.2641 12.5922 24.1653 12.7394C24.0666 12.8867 24.0136 13.0599 24.0131 13.2372C24.0131 13.4747 24.1076 13.7028 24.2759 13.8708C24.4444 14.0389 24.6726 14.1333 24.9106 14.1333ZM25.3495 11.4245L26.5603 12.2925L29.3819 9.31311L27.6314 7.84295L25.3495 11.4245Z" fill="black" stroke="black" stroke-width="0.15625" stroke-linecap="round" stroke-linejoin="round"/>
<path d="M9.06249 10.0409C9.06249 10.0409 7.98812 8.50968 6.57812 8.54687C5.44077 8.57718 5.14171 9.38343 5.64999 9.80156C6.15812 10.22 8.07484 9.64906 9.06249 10.0409ZM10.1402 11.3858C10.1402 11.3858 8.07406 10.9675 7.33015 11.8931C6.5864 12.8187 7.66077 13.3278 8.37734 13.0292C9.09374 12.7306 9.48156 11.7117 10.1402 11.3858Z" stroke="black" stroke-width="0.15625" stroke-linecap="round" stroke-linejoin="round"/>
<path d="M10.7683 12.9392C10.7683 12.9392 12.475 14.5225 14.1213 14.0448C15.7675 13.5672 17.0542 11.7437 17.0542 11.7437C17.0542 11.7437 16.9039 13.0317 18.5808 13.1786C20.2578 13.3254 21.2742 12.0129 21.2742 12.0129C21.2742 12.0129 20.5561 13.2981 21.0652 14.1042C21.5742 14.9104 23.3099 14.8517 23.3099 14.8517C23.3099 14.8517 21.723 16.1364 21.4536 17.2445C21.1842 18.3525 21.2147 19.5454 22.1147 20.2328C20.9775 19.8145 19.2717 19.8145 17.8642 20.3515C16.4569 20.8887 15.5899 22.1445 15.4105 22.892C15.4105 22.085 14.512 20.3515 12.9855 19.7245C11.4591 19.0975 8.44017 20.3218 8.44017 20.3218C8.44017 20.3218 10.3253 19.2492 10.4155 18.1107C10.5055 16.9721 9.66673 16.1389 8.3797 15.9598C9.96673 15.9598 10.8641 16.0192 11.4031 15.3922C11.9417 14.7651 10.7683 12.9392 10.7683 12.9392Z" fill="black" stroke="black" stroke-width="0.15625" stroke-linecap="round" stroke-linejoin="round"/>
</g>
</g>
</g>
<defs>
<clipPath id="clip0_1_166">
<rect width="35" height="25" fill="white"/>
</clipPath>
</defs>
</svg>
