<svg width="35" height="25" viewBox="0 0 35 25" fill="none" xmlns="http://www.w3.org/2000/svg">
<path d="M29.8136 18.9427L28.9783 17.8934V17.3125C29.356 17.1182 29.6746 16.8259 29.9006 16.4663C30.1265 16.107 30.2512 15.6935 30.2617 15.2692C30.2722 14.8256 30.1574 14.388 29.9305 14.0067C29.7033 13.6249 29.3734 13.3147 28.9783 13.1116V5.69516C28.9785 5.17002 28.8037 4.65979 28.4814 4.24516C28.1587 3.83013 27.7072 3.53409 27.198 3.4036V3.08516C27.198 3.0661 27.1939 3.04251 27.1915 3.02204C27.1898 3.00622 27.1877 2.99043 27.1853 2.9747C27.1828 2.95907 27.1789 2.92751 27.175 2.90454C27.1711 2.88173 27.175 2.8786 27.1686 2.86595C27.1639 2.83959 27.1589 2.81328 27.1536 2.78704C27.1536 2.7761 27.1481 2.76516 27.1458 2.75329C27.1394 2.7272 27.1339 2.70126 27.1267 2.67438L27.1173 2.64126C27.1101 2.6161 27.1031 2.59001 27.0944 2.56251C27.0856 2.53485 27.0856 2.53641 27.0817 2.52391L27.058 2.45516L27.039 2.40798C27.0311 2.38907 27.024 2.36938 27.0153 2.35048C27.0067 2.33141 26.998 2.31173 26.9892 2.29282C26.9806 2.27407 26.9758 2.26298 26.9687 2.24876C26.9615 2.23454 26.9465 2.20376 26.9347 2.18157L26.9165 2.14782C26.9039 2.12395 26.8904 2.1005 26.8762 2.07751L26.8597 2.04938L26.8155 1.97985C26.809 1.97126 26.8036 1.96173 26.7972 1.95235L26.7514 1.88845L26.7284 1.85766L26.6842 1.80095C26.674 1.78921 26.6643 1.77712 26.655 1.7647L26.6123 1.71657C26.6005 1.70251 26.5878 1.68907 26.5751 1.67485L26.5356 1.63391L26.4906 1.58891L26.4717 1.57001L26.4519 1.55188L26.4037 1.50845L26.3626 1.47298L26.3159 1.43516L26.2694 1.39891C26.2551 1.38798 26.2409 1.37688 26.2259 1.36657L26.1737 1.32954L26.1334 1.30282L26.0758 1.26563L26.0362 1.24282L25.9753 1.20735L25.935 1.18688C25.9148 1.17574 25.8943 1.16521 25.8734 1.15532C25.8528 1.14595 25.8434 1.14126 25.8284 1.13407C25.8091 1.1248 25.7896 1.1161 25.7698 1.10798L25.717 1.0861L25.664 1.06548L25.6031 1.04423L25.5558 1.02845L25.4894 1.00876L25.4459 0.996102L25.3772 0.979539L25.3337 0.969227L25.2658 0.956727L25.2183 0.947977L25.1551 0.938602L25.1006 0.932352L25.042 0.926727C25.0223 0.926727 25.0017 0.92282 24.982 0.922039C24.9622 0.921258 24.9456 0.922039 24.9275 0.922039H6.98467C6.35621 0.921903 5.75334 1.171 5.30827 1.6147C5.08824 1.83406 4.91364 2.09467 4.79449 2.38161C4.67534 2.66856 4.61397 2.97619 4.61389 3.28688V16.6503C4.61389 17.1205 4.75452 17.5799 5.01764 17.9699C5.28095 18.3602 5.65462 18.6632 6.09092 18.8402V18.8489C6.09092 19.4761 6.34077 20.0777 6.7853 20.5211C7.23036 20.9648 7.83324 21.2139 8.4617 21.2138H18.268C18.3569 21.6464 18.5653 22.0454 18.8695 22.3656C19.185 22.6973 19.5896 22.9308 20.0346 23.038C20.4797 23.1452 20.9462 23.1216 21.3781 22.97C21.8245 22.8134 22.2137 22.5268 22.4959 22.1472L22.748 21.8074L23.9784 23.4234C24.1997 23.7143 24.4852 23.9501 24.8127 24.1124C25.1402 24.2747 25.5007 24.3591 25.8662 24.3591C26.384 24.3591 26.8875 24.1899 27.2998 23.8775L29.39 22.2945C29.6415 22.1046 29.8524 21.8661 30.0102 21.5933C30.1681 21.3205 30.2697 21.0188 30.309 20.7061C30.3483 20.394 30.3247 20.0772 30.2396 19.7743C30.1545 19.4714 30.0096 19.1887 29.8136 18.9427Z" fill="#23A094" stroke="black" stroke-width="0.15625" stroke-miterlimit="10"/>
<path d="M26.6075 15.7161V18.6281L26.5561 18.6683L24.752 16.4011C24.75 16.3986 24.7486 16.3957 24.748 16.3925C24.7473 16.3893 24.7474 16.3861 24.7481 16.383C24.7489 16.3798 24.7505 16.3769 24.7527 16.3746C24.7549 16.3722 24.7577 16.3705 24.7608 16.3695L26.6013 15.698L26.6075 15.7161ZM26.6075 5.70953V14.5883L26.5711 14.6742L24.8074 13.9347L24.827 13.8875V5.70937L26.6075 5.70953ZM22.7417 17.9034L23.4481 18.832L23.4055 18.8644H22.0005L22.7117 17.9058C22.7136 17.9034 22.7159 17.9015 22.7186 17.9002C22.7223 17.8983 22.7265 17.8977 22.7307 17.8982C22.7348 17.8988 22.7386 17.9006 22.7417 17.9034ZM20.0714 16.6598L20.3511 18.8631L20.3402 18.8647H8.46173V16.6661H20.0208L20.0714 16.6598Z" fill="black"/>
<path d="M20.0206 16.6659H6.98453V3.30266H24.827V13.8872M7.03203 5.70953H24.8097M22.5292 5.70938V3.43594" stroke="black" stroke-width="0.15625" stroke-linecap="round" stroke-linejoin="round"/>
<path d="M22.5292 5.70938L23.6411 4.54422L24.8272 3.30266M20.3402 18.8645H8.46173V16.6266M23.4055 18.8647H22.0005M26.6075 15.7159V18.628" stroke="black" stroke-width="0.15625" stroke-linecap="round" stroke-linejoin="round"/>
<path d="M22.5292 3.43594L23.6411 4.54437L24.8098 5.70953H26.6077V14.5881M21.3334 12.4777L24.8105 13.9345L26.5744 14.6739L27.8941 15.2258L26.6044 15.6987L24.7639 16.3703C24.7593 16.3719 24.7554 16.3751 24.7531 16.3793C24.7507 16.3836 24.75 16.3885 24.7511 16.3933C24.7518 16.3964 24.7532 16.3993 24.7552 16.4019L26.5594 18.6691L27.9597 20.4286L25.8662 22.0108L23.4481 18.8322L22.7416 17.9036C22.7397 17.9012 22.7373 17.8993 22.7345 17.898C22.7318 17.8965 22.7288 17.8958 22.7258 17.8958C22.7227 17.8958 22.7197 17.8965 22.717 17.898C22.7143 17.8993 22.7119 17.9012 22.71 17.9036L21.9987 18.8622L20.5922 20.7542L20.355 18.8622L20.0753 16.655L19.7205 13.8525M8.26562 4.65719C8.36781 4.65719 8.45062 4.57469 8.45062 4.47281C8.45062 4.37094 8.36781 4.28844 8.26562 4.28844C8.16359 4.28844 8.08078 4.37094 8.08078 4.47281C8.08078 4.57469 8.16359 4.65719 8.26562 4.65719ZM9.50562 4.65719C9.55452 4.65719 9.60142 4.63776 9.636 4.60318C9.67057 4.56861 9.69 4.52171 9.69 4.47281C9.69 4.42391 9.67057 4.37702 9.636 4.34244C9.60142 4.30786 9.55452 4.28844 9.50562 4.28844C9.40344 4.28844 9.32062 4.37094 9.32062 4.47281C9.32062 4.57469 9.40344 4.65719 9.50562 4.65719ZM10.7455 4.65719C10.8477 4.65719 10.9305 4.57469 10.9305 4.47281C10.9305 4.37094 10.8477 4.28844 10.7455 4.28844C10.6434 4.28844 10.5606 4.37094 10.5606 4.47281C10.5606 4.57469 10.6434 4.65719 10.7455 4.65719Z" stroke="black" stroke-width="0.15625" stroke-linecap="round" stroke-linejoin="round"/>
<path d="M19.7166 13.8573L19.4416 11.6848L21.3334 12.4778C22.5828 11.0353 22.2469 9.8875 21.1919 9.42391C19.8928 8.85407 18.1258 9.89063 18.1258 9.89063C18.1258 9.89063 18.5936 6.52141 14.4361 7.55797C10.5353 8.53079 8.89796 11.4105 9.75921 12.9492C11.0062 15.1786 14.5405 13.2086 14.5405 13.2086C14.1547 15.6586 17.5551 15.2133 19.7166 13.8573Z" stroke="black" stroke-width="0.15625" stroke-linecap="round" stroke-linejoin="round"/>
</svg>
