<svg width="35" height="25" viewBox="0 0 35 25" fill="none" xmlns="http://www.w3.org/2000/svg">
<path d="M24.2436 4.05281C23.7531 3.27077 22.8803 2.82421 21.8483 2.82421C21.4473 2.82241 21.049 2.88953 20.6708 3.02265C20.3841 2.90111 20.0805 2.82417 19.7705 2.79452C19.8247 2.4579 19.7984 2.11321 19.6936 1.78873C19.5889 1.46425 19.4088 1.16921 19.168 0.927806C18.9684 0.727752 18.7313 0.569024 18.4703 0.460706C18.2093 0.352388 17.9295 0.296607 17.6469 0.296556C17.1997 0.296011 16.7636 0.435688 16.4 0.695931C16.2108 0.651967 16.0172 0.62974 15.823 0.629681C15.1448 0.629681 14.4942 0.899525 14.0147 1.37999C13.5349 1.86081 13.2655 2.51233 13.2656 3.19156V3.20812C12.5624 3.58868 12.0117 4.19983 11.7062 4.93874C11.6805 5.00015 11.6448 5.07265 11.6062 5.15937C11.3738 5.63837 11.1832 6.13658 11.0366 6.64843C10.7219 7.75437 10.5759 9.09062 10.5894 10.7273C10.5894 10.7508 10.5858 10.7734 10.5852 10.7967L10.495 13.7051V13.7623C10.4963 14.6042 10.7953 15.4184 11.3391 16.0611C11.8823 16.7032 12.6355 17.1318 13.465 17.2709V21.1414C13.4658 22.0769 13.8372 22.974 14.4978 23.6364C15.1578 24.298 16.0536 24.6703 16.9881 24.6716C17.4512 24.6728 17.9099 24.582 18.3377 24.4045C18.7655 24.227 19.154 23.9663 19.4805 23.6377C19.8087 23.3105 20.0688 22.9215 20.2458 22.4931C20.4228 22.0645 20.5133 21.6051 20.512 21.1414V17.2709C21.3418 17.1323 22.0955 16.7039 22.6392 16.062C23.1835 15.4195 23.4829 14.6051 23.4844 13.763V10.9859C23.4917 10.9092 23.4944 10.832 23.4923 10.755C23.4786 10.3177 23.49 9.87999 23.5267 9.44406C23.6666 7.82749 24.1278 6.96062 24.3019 6.63437C24.3331 6.57296 24.3633 6.51952 24.3914 6.45999C24.5704 6.07851 24.6507 5.65814 24.6249 5.23752C24.5991 4.81691 24.468 4.40952 24.2436 4.05281Z" fill="#FF90E8" stroke="black" stroke-width="0.15625" stroke-miterlimit="10"/>
<path d="M15.7381 5.72501C15.7528 5.67032 16.0061 4.78501 16.9706 4.74204C17.9672 4.69829 18.0641 5.72797 18.0641 5.72797C18.0641 5.72797 18.3481 4.69657 19.4869 4.74141C20.5908 4.78516 20.4006 5.67344 20.3891 5.72438C20.4124 5.66969 20.8017 4.78563 21.8608 4.78563C22.7888 4.78563 22.8959 5.47501 22.7488 5.78032C22.6263 6.03344 21.9006 7.18407 21.7063 9.40501C20.7816 8.20891 19.6475 8.77719 17.8863 8.95657C16.125 9.13594 15.9711 8.18001 14.6575 7.46297C13.3697 6.75829 12.8569 7.26407 12.838 7.28313L12.8134 7.27626C13.0152 6.56485 13.2525 6.14344 13.4045 5.78829C13.5831 5.36985 14.0216 4.76532 14.8838 4.78688C15.8595 4.81079 15.7461 5.67094 15.7381 5.72501Z" fill="black"/>
<path d="M15.8197 10.9597L12.4387 10.9762H12.4327L12.378 12.7241L12.3425 13.8841C12.3426 14.3379 12.5227 14.7732 12.8433 15.0944C13.0019 15.2532 13.1902 15.3793 13.3976 15.4653C13.605 15.5513 13.8272 15.5956 14.0517 15.5956H14.708C14.8281 15.5955 14.9456 15.631 15.0455 15.6978C15.1453 15.7646 15.2231 15.8595 15.2689 15.9706C15.2992 16.0444 15.315 16.1234 15.315 16.2033V21.2637C15.3149 21.7111 15.4923 22.1401 15.8081 22.4569C15.9644 22.6135 16.15 22.7377 16.3544 22.8224C16.5588 22.9072 16.7778 22.9508 16.9991 22.9508C17.2202 22.9513 17.4392 22.9082 17.6436 22.8239C17.8479 22.7396 18.0336 22.6157 18.19 22.4594C18.5052 22.1424 18.6816 21.7132 18.6806 21.2662V16.2058C18.6805 16.126 18.6961 16.047 18.7266 15.9733C18.7722 15.8623 18.8498 15.7674 18.9494 15.7006C19.0491 15.6338 19.1664 15.5981 19.2864 15.5981H19.9433C20.1678 15.5982 20.3901 15.5539 20.5974 15.468C20.8048 15.382 20.9931 15.2559 21.1517 15.097C21.4725 14.7759 21.6525 14.3405 21.6523 13.8866V10.9333M21.6509 10.9312L15.9684 10.9584M12.4312 12.7255H21.5645" stroke="black" stroke-width="0.15625" stroke-linecap="round" stroke-linejoin="round"/>
<path d="M20.3851 5.72814C20.4084 5.67345 20.7978 4.78939 21.857 4.78939C22.7848 4.78939 22.8922 5.47876 22.745 5.78407C22.6223 6.0372 21.8969 7.18782 21.7025 9.40876C21.6592 9.91586 21.6456 10.4251 21.662 10.9338H21.6497C19.8633 10.9338 17.8112 10.9484 15.9672 10.9613H15.8176C14.5261 10.9699 13.3442 10.9778 12.4367 10.9778C12.4109 9.19251 12.59 8.0597 12.812 7.27751C13.0137 6.5661 13.2511 6.1447 13.4033 5.78954C13.5817 5.37126 14.0201 4.76673 14.8823 4.78814C15.8581 4.81282 15.7447 5.67282 15.7367 5.72689M16.9981 21.9208C17.0805 21.9207 17.1621 21.9044 17.2381 21.8728C17.3142 21.8412 17.3833 21.7949 17.4415 21.7366C17.4997 21.6783 17.5459 21.6091 17.5773 21.5329C17.6088 21.4568 17.6249 21.3752 17.6248 21.2928C17.625 21.1265 17.559 20.9669 17.4415 20.8491C17.3239 20.7314 17.1645 20.6652 16.9981 20.665C16.9157 20.6651 16.8342 20.6814 16.7581 20.7129C16.682 20.7445 16.6129 20.7908 16.5547 20.8491C16.4964 20.9074 16.4503 20.9766 16.4188 21.0527C16.3873 21.1289 16.3712 21.2104 16.3712 21.2928C16.3712 21.3752 16.3873 21.4568 16.4188 21.533C16.4502 21.6091 16.4964 21.6783 16.5546 21.7367C16.6128 21.795 16.6819 21.8413 16.758 21.8728C16.8341 21.9044 16.9157 21.9207 16.9981 21.9208Z" stroke="black" stroke-width="0.15625" stroke-linecap="round" stroke-linejoin="round"/>
<path d="M15.7377 5.72813C15.7375 5.72709 15.7375 5.72604 15.7377 5.72501C15.7525 5.67032 16.0058 4.78501 16.9703 4.74204C17.9675 4.69829 18.0644 5.72797 18.0644 5.72797C18.0644 5.72797 18.3484 4.69657 19.4872 4.74141C20.5911 4.78516 20.4009 5.67344 20.3892 5.72438M12.8372 7.28438C12.8563 7.26532 13.3689 6.75969 14.6567 7.46438C15.9703 8.18204 16.1194 9.1386 17.8806 8.95922C19.6419 8.77985 20.7758 8.21157 21.7006 9.40766" stroke="black" stroke-width="0.15625" stroke-linecap="round" stroke-linejoin="round"/>
<path d="M14.7164 10.9353C14.6914 9.44742 14.9155 7.96583 15.3794 6.55188L14.7164 10.9353Z" fill="black"/>
<path d="M14.7164 10.9353C14.6914 9.44742 14.9155 7.96583 15.3794 6.55188" stroke="black" stroke-width="0.15625" stroke-linecap="round" stroke-linejoin="round"/>
<path d="M17.0864 10.9353C17.0614 9.44742 17.2855 7.96583 17.7494 6.55188L17.0864 10.9353Z" fill="black"/>
<path d="M17.0864 10.9353C17.0614 9.44742 17.2855 7.96583 17.7494 6.55188" stroke="black" stroke-width="0.15625" stroke-linecap="round" stroke-linejoin="round"/>
<path d="M15.9016 10.9353C15.8766 9.44742 16.1006 7.96583 16.5645 6.55188L15.9016 10.9353Z" fill="black"/>
<path d="M15.9016 10.9353C15.8766 9.44742 16.1006 7.96583 16.5645 6.55188" stroke="black" stroke-width="0.15625" stroke-linecap="round" stroke-linejoin="round"/>
<path d="M13.5325 10.9353C13.5074 9.44743 13.7315 7.96584 14.1953 6.55188L13.5325 10.9353Z" fill="black"/>
<path d="M13.5325 10.9353C13.5074 9.44743 13.7315 7.96584 14.1953 6.55188" stroke="black" stroke-width="0.15625" stroke-linecap="round" stroke-linejoin="round"/>
<path d="M19.4563 10.9353C19.4309 9.44745 19.6547 7.96582 20.1186 6.55188L19.4563 10.9353Z" fill="black"/>
<path d="M19.4563 10.9353C19.4309 9.44745 19.6547 7.96582 20.1186 6.55188" stroke="black" stroke-width="0.15625" stroke-linecap="round" stroke-linejoin="round"/>
<path d="M18.272 10.9353C18.2467 9.44745 18.4705 7.96582 18.9344 6.55188L18.272 10.9353Z" fill="black"/>
<path d="M18.272 10.9353C18.2467 9.44745 18.4705 7.96582 18.9344 6.55188" stroke="black" stroke-width="0.15625" stroke-linecap="round" stroke-linejoin="round"/>
<path d="M20.64 10.9353C20.6147 9.4474 20.8387 7.96575 21.303 6.55188L20.64 10.9353Z" fill="black"/>
<path d="M20.64 10.9353C20.6147 9.4474 20.8387 7.96575 21.303 6.55188" stroke="black" stroke-width="0.15625" stroke-linecap="round" stroke-linejoin="round"/>
<path d="M15.8295 4.04937C15.9248 4.04929 16.0191 4.03044 16.1071 3.99391C16.1951 3.95737 16.275 3.90386 16.3423 3.83644C16.4096 3.76902 16.463 3.689 16.4994 3.60095C16.5358 3.5129 16.5544 3.41854 16.5544 3.32327C16.5545 3.22799 16.5358 3.13362 16.4994 3.04555C16.4631 2.95749 16.4097 2.87745 16.3424 2.81001C16.2751 2.74256 16.1951 2.68904 16.1071 2.6525C16.0191 2.61596 15.9248 2.59711 15.8295 2.59702C15.7342 2.59708 15.6399 2.61592 15.5519 2.65246C15.4638 2.68899 15.3839 2.74251 15.3166 2.80995C15.2492 2.87739 15.1959 2.95744 15.1595 3.04552C15.1231 3.13359 15.1044 3.22798 15.1045 3.32327C15.1044 3.41856 15.1231 3.51292 15.1595 3.60098C15.1959 3.68904 15.2493 3.76907 15.3166 3.8365C15.3839 3.90392 15.4639 3.95743 15.5519 3.99395C15.6399 4.03047 15.7342 4.04931 15.8295 4.04937ZM17.683 2.82968C17.8373 2.82968 17.9625 2.70421 17.9625 2.54937C17.9625 2.39468 17.8373 2.26921 17.683 2.26921C17.5284 2.26921 17.4033 2.39468 17.4033 2.54937C17.4033 2.70405 17.5284 2.82952 17.683 2.82952V2.82968Z" fill="black" stroke="black" stroke-width="0.15625" stroke-linecap="round" stroke-linejoin="round"/>
</svg>
