<svg width="35" height="25" viewBox="0 0 35 25" fill="none" xmlns="http://www.w3.org/2000/svg">
<path d="M29.1634 4.71751C29.1571 4.14115 28.9239 3.5905 28.5142 3.18501C28.1046 2.77969 27.5517 2.55234 26.9755 2.55235H26.917V2.48595C26.917 1.90532 26.6866 1.34845 26.2761 0.937822C26.073 0.734549 25.8318 0.573291 25.5663 0.463263C25.3008 0.353235 25.0163 0.296592 24.7289 0.296572H21.2623C19.7159 0.295225 18.2308 0.901154 17.1267 1.98392C16.3591 2.7246 15.8111 3.66306 15.5433 4.69564H6.00906C5.75125 4.69548 5.49547 4.74095 5.25344 4.83001C4.81807 4.97558 4.4395 5.25438 4.17131 5.62697C3.90313 5.99955 3.75891 6.44704 3.75906 6.9061V22.4824C3.75888 22.7698 3.81534 23.0545 3.92523 23.3201C4.03511 23.5857 4.19626 23.8271 4.39947 24.0304C4.60268 24.2337 4.84396 24.395 5.10953 24.505C5.37509 24.615 5.65974 24.6716 5.94719 24.6716H29.1153C29.6956 24.6716 30.2522 24.441 30.6625 24.0305C31.0729 23.6198 31.3035 23.063 31.3034 22.4824V6.90548C31.3033 6.33337 31.0792 5.78405 30.6792 5.37501C30.2793 4.96615 29.7352 4.73013 29.1634 4.71751Z" fill="#FF7051" stroke="black" stroke-width="0.15625" stroke-miterlimit="10"/>
<path d="M17.5803 22.0097C17.6826 21.5641 17.9331 21.1664 18.2908 20.8816C18.6485 20.5969 19.0923 20.442 19.5495 20.4422H29.1465V22.4819H17.5628V22.4614C17.5628 22.3786 17.5576 22.2956 17.5475 22.2133C17.5508 22.1774 17.5559 22.1424 17.5628 22.1083C17.5656 22.0747 17.5722 22.0427 17.5803 22.0097Z" fill="black"/>
<path d="M17.5453 22.2133C17.5556 22.2956 17.5606 22.3786 17.5606 22.4614V22.4819H5.97626V20.4422H15.5417C16.0342 20.4423 16.5097 20.6224 16.8787 20.9486C17.2477 21.2748 17.4848 21.7245 17.5453 22.2133Z" fill="black"/>
<path d="M5.9761 6.90516V22.4822H29.1444V6.90516H27.0249M17.5609 22.3592V5.93719" stroke="black" stroke-width="0.15625" stroke-linecap="round" stroke-linejoin="round"/>
<path d="M24.8595 4.74188H27.0045V18.6505H20.3586C19.9937 18.6505 19.6324 18.7224 19.2953 18.8621C18.9582 19.0018 18.652 19.2066 18.3941 19.4647C17.8731 19.9861 17.5804 20.6931 17.5805 21.4302V22.3592" stroke="black" stroke-width="0.15625" stroke-linecap="round" stroke-linejoin="round"/>
<path d="M17.5805 20.6898V20.3119C17.5805 18.3013 19.282 16.6717 21.2914 16.6717H24.7581V2.51641M24.7581 2.48563H21.2914C19.282 2.48563 17.5805 4.11594 17.5805 6.12641V6.50375" stroke="black" stroke-width="0.15625" stroke-linecap="round" stroke-linejoin="round"/>
<path d="M20.5364 5.03485H20.1331C19.7964 5.03495 19.463 5.10139 19.1519 5.23038C18.8409 5.35936 18.5583 5.54835 18.3203 5.78657C17.8395 6.26783 17.5694 6.92032 17.5694 7.60063V8.31157" stroke="black" stroke-width="0.15625" stroke-linecap="round" stroke-linejoin="round"/>
<path d="M20.5364 6.45718H20.1331C19.4533 6.45718 18.8011 6.7275 18.3203 7.20859C17.8395 7.68974 17.5694 8.34212 17.5694 9.02234V9.73328M20.5364 12.4533H20.1331C19.7964 12.4534 19.463 12.5199 19.1519 12.6489C18.8409 12.7779 18.5583 12.9669 18.3203 13.2052C17.8395 13.6864 17.5694 14.3389 17.5694 15.0192V15.7292" stroke="black" stroke-width="0.15625" stroke-linecap="round" stroke-linejoin="round"/>
<path d="M20.5367 13.8745H20.1334C19.4536 13.8751 18.8018 14.1457 18.3214 14.6269C17.8409 15.1081 17.5711 15.7603 17.5711 16.4403V17.1511M20.5367 7.81671H20.1334C19.7967 7.81702 19.4634 7.88365 19.1525 8.01279C18.8415 8.14193 18.5591 8.33106 18.3212 8.56937C17.8407 9.05078 17.5709 9.70324 17.5711 10.3834V11.0934M6.03827 20.4422H15.5419C16.0773 20.4423 16.5908 20.6551 16.9694 21.0338C17.3479 21.4124 17.5606 21.9259 17.5606 22.4614" stroke="black" stroke-width="0.15625" stroke-linecap="round" stroke-linejoin="round"/>
<path d="M29.0519 20.4422H19.5498C19.0926 20.4418 18.6487 20.5967 18.2909 20.8814C17.9332 21.1662 17.6827 21.564 17.5805 22.0097C17.5725 22.0423 17.5659 22.0751 17.5608 22.1083C17.5558 22.1419 17.5492 22.1812 17.5455 22.2133C17.5346 22.2955 17.5293 22.3784 17.5295 22.4614M6.03827 6.88422H15.5419C15.9412 6.88406 16.3316 7.0024 16.6636 7.22425C16.9956 7.4461 17.2543 7.76148 17.407 8.13047C17.5084 8.37562 17.5606 8.63828 17.5606 8.90344M7.55249 17.7741H13.5661M15.3466 11.7881V16.3403H7.60358V8.59312H15.3466V11.7881Z" stroke="black" stroke-width="0.15625" stroke-linecap="round" stroke-linejoin="round"/>
<path d="M7.62405 14.8897C7.62405 14.8897 8.26874 12.0889 9.66624 12.2006C10.6961 12.283 10.3226 13.5323 11.3139 13.4367C12.5909 13.3134 11.9055 11.0751 13.332 10.552C14.6814 10.058 15.3094 11.7883 15.3094 11.7883" stroke="black" stroke-width="0.15625" stroke-linecap="round" stroke-linejoin="round"/>
</svg>
