<svg width="35" height="25" viewBox="0 0 35 25" fill="none" xmlns="http://www.w3.org/2000/svg">
<path d="M30.9352 9.45826C30.9334 7.89342 30.3111 6.39314 29.2048 5.28639C28.0988 4.17987 26.5989 3.55735 25.0344 3.55545C24.7124 3.55484 24.3909 3.58055 24.0731 3.63233L18.8852 2.31076C17.6611 1.41489 16.1833 0.93278 14.6664 0.934514C12.7651 0.936615 10.9423 1.693 9.59812 3.03764C8.2536 4.38249 7.49727 6.20565 7.495 8.10733C7.4938 9.11255 7.70508 10.1067 8.115 11.0245C7.89275 10.9683 7.66329 10.946 7.43437 10.9583C7.3875 10.9583 7.34437 10.9545 7.30515 10.9545C6.69 10.9545 5.16656 11.1853 4.38281 13.3223C4.08594 14.1333 3.92844 15.1217 3.92844 16.1803C3.92844 17.2389 4.08609 18.2281 4.38281 19.039C5.16719 21.1753 6.69 21.4061 7.30515 21.4061C7.72692 21.404 8.14278 21.3068 8.52172 21.1215L11.8678 19.6283H12.0116V21.3815C12.0123 22.0915 12.2946 22.7721 12.7966 23.2742C13.2984 23.7762 13.9789 24.0586 14.6887 24.0594H24.9798C25.6895 24.058 26.3696 23.7754 26.8713 23.2735C27.3729 22.7715 27.6551 22.0912 27.6559 21.3815V18.5897C28.2085 18.5141 28.715 18.241 29.0817 17.8208C29.4484 17.4007 29.6506 16.8619 29.6508 16.3042V14.337C29.651 14.0057 29.5797 13.6782 29.4417 13.377C30.4044 12.2988 30.9361 10.9037 30.9352 9.45826Z" fill="#F1F333" stroke="black" stroke-width="0.15625" stroke-miterlimit="10"/>
<path d="M18.1394 4.46205L23.9778 5.94908M25.5503 14.3378H27.5161V16.3041H25.5503M25.152 13.063H14.8609C14.8123 13.063 14.7642 13.0726 14.7193 13.0912C14.6744 13.1098 14.6336 13.137 14.5992 13.1714C14.5649 13.2058 14.5376 13.2466 14.519 13.2915C14.5005 13.3364 14.4909 13.3845 14.4909 13.4331V21.3814C14.4909 21.4796 14.5299 21.5737 14.5993 21.6431C14.6687 21.7124 14.7628 21.7514 14.8609 21.7514H25.152C25.2501 21.7514 25.3442 21.7124 25.4135 21.643C25.4829 21.5736 25.5219 21.4795 25.5219 21.3814V13.433C25.5219 13.3349 25.4829 13.2408 25.4135 13.1714C25.3442 13.102 25.2501 13.063 25.152 13.063ZM14.8386 12.9769C17.525 12.9769 19.7028 10.7983 19.7028 8.11112C19.7028 5.42362 17.525 3.24518 14.8387 3.24518C12.1522 3.24518 9.97452 5.42377 9.97452 8.11112C9.97452 10.7983 12.1522 12.9769 14.8386 12.9769ZM25.2069 13.0528C27.1915 13.0528 28.8005 11.4435 28.8005 9.45799C28.8005 7.47252 27.1915 5.86299 25.2069 5.86299C23.222 5.86299 21.6131 7.47252 21.6131 9.45799C21.6131 11.4433 23.222 13.0528 25.2069 13.0528Z" stroke="black" stroke-width="0.15625" stroke-linecap="round" stroke-linejoin="round"/>
<path d="M23.148 14.7433H16.9803C16.8549 14.7433 16.7307 14.768 16.6148 14.8161C16.4989 14.8641 16.3936 14.9345 16.3049 15.0232C16.2162 15.1119 16.1459 15.2173 16.0979 15.3332C16.05 15.4491 16.0253 15.5733 16.0253 15.6988V15.6995C16.0253 15.825 16.05 15.9492 16.0979 16.0651C16.1459 16.181 16.2162 16.2864 16.3049 16.3751C16.3936 16.4638 16.4989 16.5342 16.6148 16.5822C16.7307 16.6303 16.8549 16.655 16.9803 16.655H23.148C23.2734 16.655 23.3977 16.6303 23.5136 16.5822C23.6295 16.5342 23.7348 16.4638 23.8234 16.3751C23.9121 16.2864 23.9825 16.181 24.0305 16.0651C24.0785 15.9492 24.1032 15.825 24.1031 15.6995V15.6988C24.1032 15.5733 24.0785 15.4491 24.0305 15.3332C23.9825 15.2172 23.9121 15.1119 23.8234 15.0232C23.7348 14.9345 23.6295 14.8641 23.5136 14.8161C23.3977 14.768 23.2734 14.7433 23.148 14.7433Z" stroke="black" stroke-width="0.15625" stroke-linecap="round" stroke-linejoin="round"/>
<path d="M17.0678 20.0559C17.1971 20.0559 17.3252 20.0305 17.4446 19.981C17.5641 19.9315 17.6726 19.8589 17.764 19.7675C17.8554 19.6761 17.9279 19.5675 17.9774 19.448C18.0268 19.3286 18.0522 19.2005 18.0522 19.0712C18.0538 18.9409 18.0296 18.8116 17.9809 18.6907C17.9321 18.5699 17.8599 18.4599 17.7683 18.3672C17.6768 18.2745 17.5677 18.2008 17.4475 18.1506C17.3272 18.1003 17.1982 18.0745 17.0679 18.0745C16.9376 18.0745 16.8086 18.1003 16.6883 18.1506C16.5681 18.2008 16.459 18.2745 16.3675 18.3672C16.2759 18.4599 16.2037 18.5699 16.1549 18.6907C16.1062 18.8116 16.082 18.9409 16.0836 19.0712C16.0836 19.2005 16.109 19.3285 16.1584 19.448C16.2079 19.5675 16.2804 19.676 16.3718 19.7674C16.4632 19.8589 16.5717 19.9314 16.6911 19.9809C16.8105 20.0304 16.9385 20.0559 17.0678 20.0559Z" fill="black" stroke="black" stroke-width="0.15625" stroke-linecap="round" stroke-linejoin="round"/>
<path d="M7.72672 13.2662L11.548 14.975M11.548 17.3203L7.72672 19.0297M20.0087 20.0559C20.138 20.0559 20.2661 20.0305 20.3855 19.981C20.505 19.9315 20.6135 19.8589 20.7049 19.7675C20.7963 19.6761 20.8688 19.5675 20.9183 19.448C20.9677 19.3286 20.9932 19.2005 20.9931 19.0712C20.9931 18.8102 20.8894 18.5598 20.7048 18.3752C20.5202 18.1906 20.2698 18.0869 20.0087 18.0869C19.7477 18.0869 19.4973 18.1906 19.3127 18.3752C19.1281 18.5598 19.0244 18.8102 19.0244 19.0712C19.0243 19.2005 19.0498 19.3286 19.0992 19.448C19.1487 19.5675 19.2212 19.6761 19.3126 19.7675C19.404 19.8589 19.5125 19.9315 19.632 19.981C19.7514 20.0305 19.8794 20.0559 20.0087 20.0559ZM14.4431 14.975H11.577V17.3206H14.4431V14.975ZM14.8387 6.33078C14.9599 6.33076 15.0798 6.30688 15.1916 6.26052C15.3035 6.21416 15.4052 6.14621 15.4908 6.06056C15.5764 5.97492 15.6443 5.87324 15.6906 5.76135C15.737 5.64946 15.7608 5.52954 15.7608 5.40843C15.7624 5.28633 15.7397 5.16513 15.6941 5.05186C15.6484 4.93859 15.5808 4.83551 15.495 4.7486C15.4092 4.6617 15.307 4.59269 15.1943 4.54559C15.0817 4.4985 14.9608 4.47424 14.8387 4.47424C14.7166 4.47424 14.5957 4.4985 14.483 4.54559C14.3703 4.59269 14.2681 4.6617 14.1824 4.7486C14.0966 4.83551 14.0289 4.93859 13.9833 5.05186C13.9376 5.16513 13.915 5.28633 13.9166 5.40843C13.9165 5.52956 13.9403 5.64951 13.9867 5.76144C14.033 5.87336 14.1009 5.97506 14.1866 6.06072C14.2722 6.14639 14.3739 6.21434 14.4858 6.26071C14.5977 6.30707 14.7176 6.33093 14.8387 6.33093V6.33078ZM14.8387 11.7352C14.9599 11.7351 15.0798 11.7113 15.1916 11.6649C15.3035 11.6185 15.4052 11.5506 15.4908 11.4649C15.5764 11.3793 15.6443 11.2776 15.6906 11.1657C15.737 11.0538 15.7608 10.9339 15.7608 10.8128C15.7624 10.6907 15.7397 10.5695 15.6941 10.4562C15.6484 10.343 15.5808 10.2399 15.495 10.153C15.4092 10.0661 15.307 9.99707 15.1943 9.94997C15.0817 9.90287 14.9608 9.87862 14.8387 9.87862C14.7166 9.87862 14.5957 9.90287 14.483 9.94997C14.3703 9.99707 14.2681 10.0661 14.1824 10.153C14.0966 10.2399 14.0289 10.343 13.9833 10.4562C13.9376 10.5695 13.915 10.6907 13.9166 10.8128C13.9165 10.9339 13.9404 11.0539 13.9867 11.1658C14.033 11.2777 14.101 11.3793 14.1866 11.465C14.2722 11.5506 14.3739 11.6186 14.4858 11.6649C14.5977 11.7113 14.7176 11.7352 14.8387 11.7352ZM17.1464 7.62906C17.2675 7.62904 17.3874 7.60517 17.4993 7.5588C17.6112 7.51244 17.7128 7.44449 17.7984 7.35885C17.8841 7.2732 17.952 7.17153 17.9983 7.05963C18.0446 6.94774 18.0685 6.82782 18.0684 6.70672C18.0707 6.5842 18.0485 6.46247 18.0032 6.34863C17.9579 6.23479 17.8903 6.13112 17.8045 6.04368C17.7186 5.95625 17.6162 5.88679 17.5032 5.83938C17.3902 5.79197 17.2689 5.76755 17.1464 5.76755C17.0239 5.76755 16.9026 5.79197 16.7896 5.83938C16.6766 5.88679 16.5742 5.95625 16.4883 6.04368C16.4025 6.13112 16.3349 6.23479 16.2896 6.34863C16.2443 6.46247 16.2221 6.5842 16.2244 6.70672C16.2244 6.82782 16.2482 6.94774 16.2945 7.05963C16.3408 7.17153 16.4087 7.2732 16.4944 7.35885C16.58 7.44449 16.6816 7.51244 16.7935 7.5588C16.9054 7.60517 17.0253 7.62904 17.1464 7.62906ZM12.5308 10.4373C12.6519 10.4373 12.7718 10.4134 12.8837 10.3671C12.9956 10.3207 13.0973 10.2527 13.1829 10.1671C13.2685 10.0814 13.3364 9.97972 13.3827 9.86781C13.429 9.7559 13.4528 9.63596 13.4528 9.51484C13.4551 9.39233 13.4329 9.2706 13.3876 9.15676C13.3422 9.04291 13.2747 8.93925 13.1888 8.85181C13.103 8.76437 13.0006 8.69492 12.8876 8.64751C12.7746 8.6001 12.6533 8.57568 12.5308 8.57568C12.4082 8.57568 12.2869 8.6001 12.174 8.64751C12.061 8.69492 11.9586 8.76437 11.8727 8.85181C11.7869 8.93925 11.7193 9.04291 11.674 9.15676C11.6287 9.2706 11.6065 9.39233 11.6087 9.51484C11.6087 9.63596 11.6325 9.7559 11.6788 9.86781C11.7252 9.97972 11.7931 10.0814 11.8787 10.1671C11.9643 10.2527 12.066 10.3207 12.1778 10.3671C12.2897 10.4134 12.4097 10.4373 12.5308 10.4373ZM17.2172 10.3091C17.4618 10.3091 17.6964 10.2119 17.8694 10.0389C18.0424 9.86594 18.1395 9.63134 18.1395 9.38672C18.1395 9.14209 18.0424 8.90749 17.8694 8.73452C17.6964 8.56155 17.4618 8.46437 17.2172 8.46437C17.0961 8.46439 16.9762 8.48827 16.8643 8.53463C16.7524 8.58099 16.6508 8.64894 16.5651 8.73458C16.4795 8.82023 16.4116 8.9219 16.3653 9.0338C16.319 9.14569 16.2951 9.26561 16.2952 9.38672C16.2951 9.50782 16.319 9.62774 16.3653 9.73963C16.4116 9.85153 16.4795 9.9532 16.5651 10.0388C16.6508 10.1245 16.7524 10.1924 16.8643 10.2388C16.9762 10.2852 17.0961 10.309 17.2172 10.3091ZM12.46 7.74625C12.5811 7.74623 12.701 7.72235 12.8129 7.67599C12.9248 7.62963 13.0264 7.56168 13.112 7.47603C13.1977 7.39039 13.2656 7.28871 13.3119 7.17682C13.3582 7.06493 13.382 6.94501 13.382 6.8239C13.3843 6.70139 13.3621 6.57966 13.3168 6.46582C13.2715 6.35198 13.2039 6.24831 13.1181 6.16087C13.0322 6.07344 12.9298 6.00398 12.8168 5.95657C12.7038 5.90916 12.5825 5.88474 12.46 5.88474C12.3375 5.88474 12.2162 5.90916 12.1032 5.95657C11.9902 6.00398 11.8878 6.07344 11.8019 6.16087C11.7161 6.24831 11.6485 6.35198 11.6032 6.46582C11.5579 6.57966 11.5357 6.70139 11.538 6.8239C11.5379 6.94501 11.5618 7.06493 11.6081 7.17682C11.6544 7.28871 11.7223 7.39039 11.808 7.47603C11.8936 7.56168 11.9952 7.62963 12.1071 7.67599C12.219 7.72235 12.3389 7.74623 12.46 7.74625ZM14.8386 8.62422C14.9747 8.62422 15.1052 8.57016 15.2014 8.47395C15.2976 8.37773 15.3516 8.24724 15.3516 8.11117C15.3516 7.9751 15.2976 7.8446 15.2014 7.74839C15.1052 7.65217 14.9747 7.59812 14.8386 7.59812C14.7025 7.59812 14.572 7.65217 14.4758 7.74839C14.3796 7.8446 14.3255 7.9751 14.3255 8.11117C14.3255 8.24724 14.3796 8.37773 14.4758 8.47395C14.572 8.57016 14.7025 8.62422 14.8386 8.62422ZM25.2067 8.13062C25.297 8.13062 25.3864 8.11283 25.4699 8.07826C25.5533 8.04369 25.6291 7.99302 25.693 7.92915C25.7568 7.86527 25.8074 7.78945 25.842 7.706C25.8765 7.62255 25.8943 7.53312 25.8942 7.44281C25.8942 7.30685 25.8538 7.17396 25.7782 7.06094C25.7026 6.94792 25.5952 6.85985 25.4696 6.80786C25.344 6.75588 25.2057 6.74231 25.0724 6.76887C24.9391 6.79543 24.8166 6.86094 24.7205 6.9571C24.6244 7.05326 24.5589 7.17576 24.5324 7.30911C24.5059 7.44247 24.5195 7.58068 24.5716 7.70629C24.6236 7.83189 24.7117 7.93925 24.8248 8.01478C24.9378 8.09031 25.0708 8.13062 25.2067 8.13062ZM25.2067 12.1622C25.297 12.1622 25.3864 12.1444 25.4698 12.1098C25.5533 12.0753 25.6291 12.0246 25.6929 11.9608C25.7567 11.8969 25.8074 11.8211 25.8419 11.7377C25.8765 11.6542 25.8942 11.5648 25.8942 11.4745C25.8942 11.3386 25.8538 11.2057 25.7783 11.0926C25.7027 10.9796 25.5953 10.8915 25.4697 10.8395C25.3441 10.7875 25.2058 10.7739 25.0725 10.8004C24.9391 10.827 24.8167 10.8924 24.7205 10.9886C24.6244 11.0848 24.5589 11.2073 24.5324 11.3406C24.5059 11.474 24.5195 11.6122 24.5716 11.7378C24.6236 11.8634 24.7117 11.9708 24.8248 12.0463C24.9378 12.1219 25.0707 12.1622 25.2067 12.1622ZM26.9284 9.09843C27.0196 9.09981 27.1101 9.08304 27.1948 9.0491C27.2794 9.01516 27.3564 8.96474 27.4214 8.90075C27.4863 8.83677 27.5379 8.76051 27.5731 8.6764C27.6083 8.5923 27.6265 8.50203 27.6265 8.41086C27.6265 8.31968 27.6083 8.22941 27.5731 8.14531C27.5379 8.06121 27.4863 7.98494 27.4214 7.92096C27.3564 7.85697 27.2794 7.80655 27.1948 7.77261C27.1101 7.73867 27.0196 7.7219 26.9284 7.72328C26.7461 7.72328 26.5711 7.79573 26.4422 7.92469C26.3132 8.05365 26.2408 8.22856 26.2408 8.41093C26.2408 8.59331 26.3132 8.76822 26.4422 8.89718C26.5711 9.02614 26.7461 9.09843 26.9284 9.09843ZM23.4848 11.1939C23.5751 11.1939 23.6646 11.1761 23.748 11.1416C23.8314 11.107 23.9072 11.0563 23.971 10.9925C24.0349 10.9286 24.0855 10.8528 24.1201 10.7694C24.1546 10.686 24.1724 10.5965 24.1723 10.5062C24.1723 10.3703 24.132 10.2374 24.0564 10.1243C23.9808 10.0113 23.8735 9.9232 23.7478 9.87119C23.6222 9.81918 23.484 9.80559 23.3506 9.83213C23.2173 9.85868 23.0948 9.92417 22.9986 10.0203C22.9025 10.1165 22.8371 10.239 22.8105 10.3723C22.784 10.5057 22.7976 10.6439 22.8497 10.7695C22.9017 10.8951 22.9898 11.0025 23.1029 11.078C23.216 11.1536 23.3489 11.1939 23.4848 11.1939ZM26.9814 11.0981C27.0717 11.0981 27.1611 11.0803 27.2446 11.0458C27.328 11.0112 27.4038 10.9605 27.4676 10.8966C27.5315 10.8328 27.5821 10.7569 27.6167 10.6735C27.6512 10.5901 27.6689 10.5006 27.6689 10.4103C27.6688 10.2743 27.6285 10.1415 27.5529 10.0284C27.4773 9.91542 27.3699 9.82735 27.2443 9.77536C27.1187 9.72338 26.9804 9.70981 26.8471 9.73637C26.7137 9.76293 26.5913 9.82844 26.4952 9.9246C26.399 10.0208 26.3336 10.1433 26.3071 10.2766C26.2806 10.41 26.2942 10.5482 26.3463 10.6738C26.3983 10.7994 26.4864 10.9067 26.5995 10.9823C26.7125 11.0578 26.8454 11.0981 26.9814 11.0981ZM23.4323 9.18593C23.6147 9.18593 23.7897 9.11348 23.9186 8.9845C24.0476 8.85553 24.1201 8.6806 24.1201 8.4982C24.1201 8.3158 24.0476 8.14087 23.9186 8.0119C23.7897 7.88292 23.6147 7.81047 23.4323 7.81047C23.25 7.81047 23.0751 7.88291 22.9461 8.01188C22.8171 8.14084 22.7447 8.31574 22.7447 8.49812C22.7447 8.6805 22.8171 8.85541 22.9461 8.98437C23.0751 9.11333 23.25 9.18593 23.4323 9.18593ZM25.2066 9.84125C25.3081 9.84125 25.4056 9.80089 25.4774 9.72905C25.5492 9.65722 25.5896 9.55979 25.5896 9.4582C25.5896 9.35661 25.5492 9.25918 25.4774 9.18734C25.4056 9.11551 25.3081 9.07515 25.2066 9.07515C25.105 9.07515 25.0075 9.11551 24.9357 9.18734C24.8639 9.25918 24.8235 9.35661 24.8235 9.4582C24.8235 9.55979 24.8639 9.65722 24.9357 9.72905C25.0075 9.80089 25.105 9.84125 25.2066 9.84125Z" stroke="black" stroke-width="0.15625" stroke-linecap="round" stroke-linejoin="round"/>
<path d="M7.47733 19.1022C8.06858 19.1022 8.5478 17.7958 8.5478 16.1842C8.5478 14.5726 8.06858 13.2662 7.47733 13.2662C6.88608 13.2662 6.40686 14.5726 6.40686 16.1842C6.40686 17.7958 6.88608 19.1022 7.47733 19.1022Z" fill="black" stroke="black" stroke-width="0.15625" stroke-linecap="round" stroke-linejoin="round"/>
</svg>
