<svg width="35" height="25" viewBox="0 0 35 25" fill="none" xmlns="http://www.w3.org/2000/svg">
<path d="M23.3884 15.168C23.2975 14.0186 22.7601 13.3736 22.3256 13.0347C21.7026 12.5498 20.9508 12.4319 20.3945 12.4847H19.3433V11.7347C20.1288 11.4353 20.8377 10.9646 21.4185 10.3568C21.9992 9.74905 22.4372 9.01945 22.7005 8.22112C22.9638 7.42278 23.0458 6.57579 22.9406 5.74176C22.8354 4.90773 22.5456 4.10764 22.0923 3.39969C21.4862 2.45253 20.6116 1.70749 19.5802 1.25969C19.3933 1.14161 19.1835 1.06435 18.9647 1.03297C18.2448 0.815487 17.4888 0.743629 16.7408 0.821596C15.9928 0.899564 15.2678 1.12579 14.6083 1.48707C13.9487 1.84835 13.3677 2.33744 12.8993 2.92576C12.4308 3.51409 12.0843 4.18986 11.88 4.9136C11.6069 5.88103 11.5965 6.90375 11.8497 7.87657C11.8731 8.03282 11.92 8.18454 11.9883 8.32704C12.2406 9.03817 12.6318 9.69199 13.1393 10.2504C13.6467 10.8088 14.2602 11.2607 14.9441 11.5797V14.7075C14.5647 14.9876 14.2564 15.3528 14.0439 15.7737C13.8313 16.1946 13.7206 16.6596 13.7205 17.1311V19.2333C13.6945 20.2267 14.0906 21.2709 14.7631 21.9656C14.9588 22.1689 15.181 22.345 15.4236 22.4891V22.6423C15.4236 23.063 15.5907 23.4665 15.8882 23.764C16.1857 24.0615 16.5891 24.2286 17.0098 24.2286H17.0273L21.8264 24.1756C22.2388 24.1712 22.6332 24.0063 22.9261 23.7159C23.219 23.4255 23.3873 23.0325 23.3953 22.6202C23.4053 22.008 23.5047 16.6309 23.3884 15.168Z" fill="#23A094" stroke="black" stroke-width="0.15625" stroke-miterlimit="10"/>
<path d="M17.3409 10.5672C19.5903 10.5672 21.4139 8.74375 21.4139 6.49453C21.4139 4.24531 19.5903 2.42188 17.3409 2.42188C15.0914 2.42188 13.2678 4.24531 13.2678 6.49453C13.2678 8.74375 15.0914 10.5672 17.3409 10.5672Z" stroke="black" stroke-width="0.15625" stroke-linecap="round" stroke-linejoin="round"/>
<path d="M20.7053 6.50578C20.7048 7.20126 20.4899 7.87968 20.09 8.44865C19.69 9.01762 19.1244 9.4495 18.4702 9.68547C17.816 9.92156 17.1049 9.95037 16.4338 9.76797C15.7626 9.58557 15.164 9.20083 14.7192 8.6661C14.7192 8.6661 16.0941 10.1734 18.2927 9.08906C20.5647 7.97078 20.7053 6.50578 20.7053 6.50578Z" fill="black" stroke="black" stroke-width="0.15625" stroke-linecap="round" stroke-linejoin="round"/>
<path d="M13.5508 5.00298C13.5508 5.00298 15.1206 4.35048 16.9639 4.87766C19.1403 5.49954 20.5336 6.54516 21.1189 8.0097" stroke="black" stroke-width="0.15625" stroke-linecap="round" stroke-linejoin="round"/>
<path d="M18.7544 2.64891C18.7544 2.64891 17.3886 2.79016 16.2109 5.28563C15.137 7.56282 15.3402 9.59407 15.4813 10.1122M17.7417 10.5119C17.7417 10.5119 17.0613 9.71141 17.0116 8.44C16.9413 6.6275 17.6947 5.54313 18.5186 4.79188C19.602 3.80313 20.567 4.08547 20.567 4.08547M15.3395 2.9786C15.3395 2.9786 15.9989 3.51985 15.4575 4.76766C14.9161 6.01563 13.4324 7.68672 13.4324 7.68672M21.9491 5.31829C21.9888 5.52032 22.0144 5.725 22.0256 5.93063M21.148 3.70735C21.148 3.70735 21.5413 4.0425 21.8041 4.78532M12.85 8.15579C12.85 8.15579 12.9864 8.65594 13.2366 8.99704M16.5453 15.7433V11.207C16.5454 11.0441 16.6101 10.8879 16.7253 10.7727C16.8405 10.6574 16.9968 10.5927 17.1597 10.5927C17.2404 10.5926 17.3203 10.6085 17.3949 10.6393C17.4694 10.6702 17.5372 10.7155 17.5942 10.7725C17.6513 10.8296 17.6965 10.8973 17.7274 10.9719C17.7582 11.0464 17.7741 11.1263 17.7741 11.207V14.1734" stroke="black" stroke-width="0.15625" stroke-linecap="round" stroke-linejoin="round"/>
<path d="M17.5472 15.7434V14.7061C17.5472 14.6287 17.5624 14.5521 17.592 14.4806C17.6216 14.4092 17.665 14.3442 17.7197 14.2895C17.7744 14.2348 17.8393 14.1914 17.9108 14.1618C17.9823 14.1322 18.0589 14.117 18.1362 14.117M19.9086 14.7058V16.3881C19.9086 16.5444 19.8465 16.6942 19.7361 16.8047C19.6256 16.9151 19.4758 16.9772 19.3195 16.9772C19.2407 16.9774 19.1627 16.9615 19.0901 16.9306M18.7305 15.7481V14.7061C18.7304 14.6287 18.7457 14.5521 18.7753 14.4806C18.8049 14.4092 18.8482 14.3442 18.9029 14.2895C18.9577 14.2348 19.0226 14.1914 19.0941 14.1618C19.1656 14.1322 19.2422 14.117 19.3195 14.117H20.3739" stroke="black" stroke-width="0.15625" stroke-linecap="round" stroke-linejoin="round"/>
<path d="M21.0976 15.2403V16.3903C21.0977 16.4677 21.0824 16.5443 21.0529 16.6157C21.0233 16.6872 20.9799 16.7521 20.9252 16.8068C20.8704 16.8615 20.8055 16.9049 20.734 16.9345C20.6625 16.9641 20.5859 16.9793 20.5086 16.9792C20.3524 16.9792 20.2026 16.9172 20.0921 16.8067C19.9816 16.6963 19.9196 16.5465 19.9195 16.3903V14.708C19.9195 14.6306 19.9347 14.554 19.9643 14.4825C19.9939 14.411 20.0373 14.3461 20.092 14.2914C20.1467 14.2367 20.2117 14.1933 20.2831 14.1637C20.3546 14.1341 20.4312 14.1189 20.5086 14.1189M18.2822 15.8088C18.2822 15.8088 18.3578 16.1709 18.6898 16.2011C19.0219 16.2311 19.1731 16.1561 19.3847 15.9292" stroke="black" stroke-width="0.15625" stroke-linecap="round" stroke-linejoin="round"/>
<path d="M20.5088 14.1172C20.5088 14.1172 21.7106 13.9136 21.8244 15.3406C21.938 16.7675 21.8244 22.6367 21.8244 22.6367L17.0247 22.6895V21.3736H16.9894C15.8467 21.3736 15.2914 20.1576 15.3216 19.3048V17.1783C15.3212 16.9903 15.3579 16.8042 15.4297 16.6305C15.5014 16.4568 15.6068 16.299 15.7397 16.1661C15.8726 16.0332 16.0304 15.9279 16.2041 15.8562C16.3778 15.7845 16.564 15.7477 16.7519 15.7481H19.0256C19.1606 15.7482 19.29 15.802 19.3853 15.8974C19.4807 15.9929 19.5343 16.1224 19.5342 16.2573C19.5342 16.3512 19.5157 16.4441 19.4798 16.5308C19.4438 16.6175 19.3912 16.6962 19.3248 16.7625C19.2584 16.8289 19.1796 16.8815 19.0929 16.9173C19.0062 16.9532 18.9132 16.9716 18.8194 16.9716L17.1739 16.9791C18.1784 17.3051 18.8549 18.3192 18.8549 19.373" stroke="black" stroke-width="0.15625" stroke-linecap="round" stroke-linejoin="round"/>
<path d="M19.2867 17.6514C19.2867 17.6514 20.397 18.0136 20.7144 18.4894M19.9097 15.9859C19.9097 15.9859 20.2424 15.7395 20.4988 15.9859C20.8049 16.2805 20.6119 16.9148 20.1022 16.8245M19.3197 14.1172H18.1363" stroke="black" stroke-width="0.15625" stroke-linecap="round" stroke-linejoin="round"/>
</svg>
