<svg width="35" height="25" viewBox="0 0 35 25" fill="none" xmlns="http://www.w3.org/2000/svg">
<path d="M29.8181 10.1695C29.8228 10.1572 29.8265 10.145 29.8312 10.1334C29.842 10.1048 29.852 10.0764 29.8614 10.0486C29.8659 10.0347 29.8706 10.02 29.8745 10.0062C29.8837 9.97685 29.893 9.94763 29.9008 9.91747L29.91 9.88278C29.9184 9.84732 29.927 9.812 29.9339 9.77653C29.9336 9.7706 29.9336 9.76466 29.9339 9.75872C29.9681 9.58107 29.9814 9.39997 29.9733 9.21919V9.21153C29.9733 9.16763 29.968 9.12294 29.9633 9.07903C29.9539 8.98997 29.9395 8.90138 29.92 8.81388C29.92 8.80607 29.92 8.79919 29.9147 8.79153C29.9061 8.75841 29.8976 8.72435 29.8884 8.69216C29.8884 8.67966 29.8814 8.66747 29.8775 8.65513C29.8684 8.62569 29.8589 8.59637 29.849 8.56716C29.849 8.55497 29.8405 8.54263 29.8367 8.53107C29.8228 8.49403 29.8089 8.45388 29.7934 8.42075C29.7933 8.41794 29.7933 8.41513 29.7934 8.41232C29.7718 8.36253 29.7486 8.31345 29.7239 8.26513L29.6776 8.17872C29.6742 8.17354 29.6711 8.16817 29.6683 8.16263L25.7776 1.45747L25.773 1.44888C25.7466 1.40457 25.7188 1.36116 25.6895 1.31872C25.6834 1.30872 25.6764 1.29935 25.6703 1.29013C25.6428 1.25102 25.6142 1.21272 25.5845 1.17529L25.5753 1.16294C25.543 1.12294 25.5089 1.08591 25.4742 1.04732L25.4511 1.02279C25.3789 0.94561 25.3015 0.873462 25.2195 0.806848L25.2064 0.796848C25.1192 0.728268 25.0271 0.666224 24.9308 0.611223H24.9253C24.8306 0.556983 24.7321 0.509823 24.6305 0.470129L24.6087 0.461692C24.5601 0.442429 24.5107 0.425227 24.4606 0.410129L24.4397 0.403879C24.3989 0.391547 24.3577 0.380499 24.3162 0.370754L24.2669 0.359817L24.2383 0.352942C24.2052 0.346323 24.172 0.340436 24.1387 0.335285L24.1055 0.330598C24.0601 0.323921 24.0146 0.318762 23.9689 0.315129H23.9287C23.8213 0.307473 23.7135 0.307473 23.6061 0.315129H23.5906C23.5287 0.320598 23.467 0.327629 23.4061 0.337629L15.8978 1.50372C15.8661 1.50841 15.8353 1.5145 15.8044 1.5206H15.7859C15.7434 1.52904 15.7009 1.53982 15.6584 1.5506L15.6169 1.5631L15.5273 1.58997L15.4848 1.60466C15.4501 1.61693 15.4156 1.63001 15.3814 1.64388L15.3589 1.65232C15.3181 1.66935 15.2772 1.68857 15.237 1.70794L15.2045 1.72482C15.1735 1.7402 15.1429 1.75635 15.1126 1.77325L15.0926 1.78419L15.0787 1.79263C15.0425 1.81419 15.0069 1.83654 14.9714 1.85982L14.963 1.86513C14.9259 1.8906 14.8858 1.91669 14.8533 1.94216L14.8225 1.96685C14.7962 1.98685 14.7716 2.00763 14.7453 2.02935L14.7136 2.05622C14.6842 2.08247 14.6564 2.10872 14.6287 2.13325L14.6156 2.14638C14.5841 2.17736 14.5537 2.20952 14.5245 2.24279L14.4991 2.272C14.4774 2.29688 14.4568 2.32258 14.4372 2.34904C14.428 2.3606 14.4195 2.37216 14.4101 2.3831L14.3917 2.40763L11.0351 6.93482V6.9395C10.9787 7.01744 10.9271 7.09879 10.8808 7.1831C10.8578 7.22441 10.8359 7.2663 10.8151 7.30872V7.31341C10.7536 7.44153 10.7042 7.57513 10.6676 7.71247L10.663 7.73028C10.6533 7.77028 10.6441 7.81122 10.6353 7.85278V7.86591C10.6266 7.91143 10.6191 7.95718 10.6128 8.0031V8.01247C10.6075 8.05247 10.6036 8.08935 10.6005 8.13263V8.44247C10.6005 8.48466 10.6067 8.52794 10.612 8.57028C10.612 8.58185 10.612 8.59341 10.6167 8.60497C10.6167 8.63966 10.6261 8.67435 10.6322 8.70903C10.6322 8.71903 10.6359 8.72903 10.6375 8.73919C10.6547 8.83122 10.6776 8.922 10.7062 9.01107V9.01575C10.7209 9.06122 10.7372 9.10591 10.7548 9.15075L10.7595 9.16232C10.7595 9.17153 10.7664 9.18153 10.7705 9.19075L7.23077 9.1645H7.09874C7.06171 9.1645 7.02155 9.16919 6.98608 9.1731C6.50421 9.21732 6.04858 9.41216 5.68374 9.72935L5.64593 9.76185L5.61046 9.79497L5.56561 9.83732L5.5603 9.84278L5.55561 9.84747C5.54468 9.85825 5.53561 9.86903 5.52546 9.87982L5.47999 9.92669L5.43905 9.9745L5.40577 10.0131C5.38889 10.0339 5.37264 10.0547 5.35639 10.0762L5.33718 10.1009C5.3178 10.1272 5.29936 10.1534 5.28093 10.1781L5.27311 10.1897C5.14708 10.3758 5.04901 10.5793 4.98202 10.7939V10.7986C4.97202 10.8308 4.9628 10.8633 4.95421 10.8964C4.95444 10.9008 4.95444 10.9051 4.95421 10.9095C4.94733 10.9395 4.9403 10.9689 4.93421 10.9989C4.93421 11.0067 4.93421 11.0142 4.92874 11.022C4.92343 11.0489 4.91936 11.0759 4.91483 11.1029C4.91483 11.1137 4.91483 11.1245 4.90952 11.1353C4.90561 11.16 4.90249 11.1837 4.90014 11.2076C4.89796 11.2315 4.90014 11.2354 4.89546 11.2493C4.89093 11.2633 4.89546 11.2933 4.89015 11.3156C4.88483 11.3379 4.89015 11.3472 4.89015 11.3626V11.472L4.87014 22.2706C4.86811 22.4683 4.89202 22.6654 4.94108 22.857C4.99154 23.0599 5.06945 23.2549 5.17264 23.4367L5.18358 23.4551C5.20905 23.4983 5.23514 23.5408 5.26077 23.5815C5.26764 23.5923 5.27546 23.6015 5.28233 23.6115C5.30233 23.6401 5.32249 23.6678 5.34327 23.6956L5.37968 23.7418C5.40358 23.7711 5.42811 23.7997 5.45686 23.8281C5.4853 23.8567 5.49233 23.8667 5.51093 23.8851C5.52936 23.9037 5.54171 23.9183 5.5578 23.9337L5.61124 23.9847C5.6328 24.0047 5.65515 24.0239 5.67765 24.0433C5.69999 24.0625 5.72155 24.0801 5.7439 24.0987L5.81343 24.1518L5.85749 24.1826C5.89452 24.2089 5.93468 24.2336 5.96936 24.2598C6.01264 24.2859 6.05593 24.3106 6.10061 24.3368L6.11843 24.3461C6.25577 24.4175 6.40013 24.4746 6.54921 24.5164H6.55452C6.65077 24.5431 6.74827 24.5636 6.84718 24.5781L6.8889 24.5834C6.92124 24.5881 6.95374 24.5912 6.98608 24.5934L7.04014 24.5981C7.08186 24.5981 7.12343 24.6028 7.16593 24.6028H7.19764L18.1358 24.6843H18.2901L18.3789 24.6783H18.3975C18.4291 24.6783 18.4608 24.6714 18.4925 24.6667H18.497C18.9335 24.6016 19.3422 24.4124 19.6744 24.1218L19.7014 24.0987L19.7445 24.0586L19.7823 24.0223L19.787 24.0178L19.7933 24.0123C19.8056 24 19.8164 23.9876 19.8287 23.9747C19.8411 23.9615 19.855 23.9476 19.8673 23.9337L19.9144 23.8806L19.9422 23.8483C19.9608 23.8251 19.9784 23.8028 19.9955 23.7797C20.0009 23.7726 20.0062 23.7665 20.0109 23.7595C20.0317 23.7326 20.0511 23.704 20.0703 23.6764L20.075 23.6686C20.2019 23.4813 20.3 23.2761 20.3661 23.0598C20.3761 23.0259 20.3853 22.992 20.3945 22.9581V22.9479C20.4023 22.9172 20.4092 22.8864 20.4162 22.8548V22.8354C20.4223 22.807 20.427 22.7784 20.4317 22.75L20.4362 22.7222C20.4401 22.6959 20.4433 22.6706 20.4462 22.6451V22.6089C20.4462 22.585 20.4462 22.5611 20.4517 22.5364C20.4572 22.5118 20.4517 22.5095 20.4517 22.4956V22.3692L20.4601 17.5831L24.8767 17.59C25.3179 17.5898 25.75 17.4639 26.1222 17.2268C26.494 16.9899 26.7903 16.6517 26.9764 16.252L29.4994 10.864C29.6437 10.652 29.7514 10.4172 29.8181 10.1695Z" fill="#23A094" stroke="black" stroke-width="0.15625" stroke-miterlimit="10"/>
<path d="M27.4598 9.64685L24.8491 15.2562L23.1228 15.2531V15.0844L27.4598 9.64685Z" fill="black"/>
<path d="M23.1233 15.0854V15.2542L18.1664 15.2465H18.1178L18.1194 14.2515H18.2537L18.5533 14.1583L18.1664 13.7729H18.1209L18.1233 12.5698H18.2459L23.1233 15.0854Z" fill="black"/>
<path d="M18.5531 14.1577L18.2536 14.2509H18.1192L18.1208 13.7723H18.1662L18.5531 14.1577ZM18.1041 22.352L7.13422 22.2703L14.4587 18.725L18.1041 22.352Z" fill="black"/>
<path d="M18.1041 22.3509L7.13422 22.2692L7.15437 11.4568L14.1184 11.5084L16.0669 11.5225L18.1241 11.5378L18.1227 12.5683L18.1203 13.7714L18.1187 14.25L18.1172 15.245L18.1041 22.3509Z" stroke="black" stroke-width="0.15625" stroke-linecap="round" stroke-linejoin="round"/>
<path d="M7.15421 11.4568L14.4587 18.7239L18.1039 22.3509" stroke="black" stroke-width="0.15625" stroke-linecap="round" stroke-linejoin="round"/>
<path d="M18.1241 11.5385L14.4681 18.7199L14.4587 18.7245L7.13422 22.2699M8.97515 17.3028L10.7623 17.7538M16.3127 17.4245L16.4192 18.4974L16.8169 17.3797L16.9473 18.3863M13.9884 20.2939L13.6186 21.178L14.1853 20.7278M13.1556 12.9847L13.2916 14.7256L14.4827 14.7072L14.0248 13.9233" stroke="black" stroke-width="0.15625" stroke-linecap="round" stroke-linejoin="round"/>
<path d="M14.1183 11.5073L12.8506 8.28657M12.8506 8.28657L16.2072 3.75938L23.7309 2.59094L27.6217 9.29844L27.4595 9.64766L24.8487 15.2569L23.1226 15.2538L18.1658 15.2459M12.8506 8.28657L16.0675 11.4467" stroke="black" stroke-width="0.15625" stroke-linecap="round" stroke-linejoin="round"/>
<path d="M27.6216 9.29704L22.7613 7.35485M22.7613 7.35485L16.207 3.75797L16.0673 11.445L22.7613 7.35485ZM22.7613 7.35485L23.1225 15.0836L18.2452 12.568M27.5394 9.54719L27.4598 9.64719L23.1228 15.0847M23.7314 2.59094L22.7619 7.35626M14.3997 7.88907L14.7748 7.32579L14.6816 8.25672M17.4516 7.64454L18.0986 6.74188M18.2028 8.08391L18.8505 7.18141M22.2436 4.30516L21.5334 3.97375L21.6639 4.79688L20.9798 4.46704M21.3978 10.9119L19.8763 10.7345" stroke="black" stroke-width="0.15625" stroke-linecap="round" stroke-linejoin="round"/>
<path d="M21.3244 11.925L21.0711 11.5342L20.32 11.877L19.7858 11.38M24.2445 6.33391L24.6136 6.89344L24.4614 6.01562L24.9308 6.6375M25.6333 9.97297L24.3417 9.61L24.4305 10.5858M18.1663 13.7723L18.553 14.1577L18.2534 14.2509" stroke="black" stroke-width="0.15625" stroke-linecap="round" stroke-linejoin="round"/>
</svg>
