<svg width="35" height="25" viewBox="0 0 35 25" fill="none" xmlns="http://www.w3.org/2000/svg">
<path d="M25.103 15.8687C25.9298 14.3572 26.4 12.6225 26.4 10.7781C26.4 4.91188 21.6444 0.15625 15.7781 0.15625C9.91188 0.15625 5.15625 4.91188 5.15625 10.7781C5.15625 16.6444 9.91188 21.4 15.7781 21.4C17.6748 21.4 19.4556 20.9028 20.9969 20.0317L25.7152 24.8438L29.8497 20.7092L25.103 15.8687Z" fill="#F1F333" stroke="black" stroke-width="0.15625" stroke-miterlimit="10"/>
<path d="M15.9026 18.6989C17.6476 18.7005 19.3421 18.1135 20.7122 17.0329L25.8834 22.2058L27.2058 20.8829L22.0345 15.7101C22.7559 14.7891 23.261 13.7176 23.5122 12.575C23.7635 11.4324 23.7546 10.2479 23.4861 9.10915C23.2176 7.97045 22.6964 6.90671 21.9611 5.9967C21.2259 5.08669 20.2953 4.3537 19.2384 3.85201C18.1816 3.35059 17.0255 3.09343 15.8558 3.0996C14.6862 3.10576 13.5328 3.3751 12.4814 3.88763C11.4298 4.40029 10.507 5.14294 9.78128 6.0606C9.05561 6.97826 8.54566 8.04742 8.28921 9.18888C8.03274 10.3304 8.0363 11.5151 8.29963 12.6551C8.56295 13.7951 9.07931 14.8612 9.81046 15.7747C10.5415 16.6879 11.4686 17.4249 12.5232 17.9311C13.5777 18.4373 14.7329 18.6997 15.9026 18.6989ZM15.9026 4.97122C16.6809 4.97126 17.4515 5.12461 18.1705 5.42252C18.8895 5.72043 19.5427 6.15706 20.093 6.70748C21.2045 7.81921 21.8289 9.32694 21.8289 10.899C21.8289 12.4711 21.2045 13.9789 20.093 15.0906C19.5427 15.641 18.8895 16.0776 18.1705 16.3755C17.4515 16.6734 16.6809 16.8267 15.9026 16.8267C15.1244 16.8267 14.3538 16.6734 13.6348 16.3755C12.9158 16.0776 12.2625 15.641 11.7123 15.0906C10.601 13.9787 9.97673 12.4711 9.97673 10.899C9.97673 9.32701 10.601 7.81934 11.7123 6.70748C12.2625 6.15705 12.9158 5.72041 13.6348 5.4225C14.3538 5.12459 15.1244 4.97125 15.9026 4.97122Z" fill="#F1F333" stroke="black" stroke-width="0.15625" stroke-miterlimit="10"/>
<path d="M11.7075 12.1547C11.4573 11.5511 11.3535 10.8968 11.4047 10.2453C11.4558 9.5939 11.6604 8.96382 12.0018 8.40662C12.3431 7.84942 12.8115 7.38093 13.3686 7.03945C13.9257 6.69797 14.5557 6.4932 15.2072 6.44189L15.2897 7.48799C14.8034 7.52631 14.333 7.67918 13.9171 7.93411C13.5012 8.18904 13.1516 8.53878 12.8967 8.95475C12.6419 9.37071 12.4891 9.84108 12.4509 10.3274C12.4127 10.8137 12.4901 11.3022 12.6769 11.7528L11.7075 12.1547Z" fill="black"/>
</svg>
