<svg width="35" height="25" viewBox="0 0 35 25" fill="none" xmlns="http://www.w3.org/2000/svg">
<g clip-path="url(#clip0_1_115)">
<mask id="mask0_1_115" style="mask-type:luminance" maskUnits="userSpaceOnUse" x="0" y="0" width="35" height="25">
<path d="M0 0H35V25H0V0Z" fill="white"/>
</mask>
<g mask="url(#mask0_1_115)">
<path d="M29.1127 10.8152C29.0663 10.6293 29.0043 10.4476 28.9274 10.2722C29.013 9.63742 28.8504 8.9941 28.4734 8.47625L29.1399 7.83625C29.5132 7.47515 29.7642 7.00621 29.8575 6.49523C29.9508 5.98425 29.8818 5.45688 29.6601 4.98713C29.4385 4.51737 29.0753 4.12881 28.6215 3.87597C28.1678 3.62313 27.6463 3.5187 27.1302 3.57734L26.2745 3.67781C26.0032 3.10371 25.5225 2.65517 24.931 2.42416C24.3395 2.19316 23.6821 2.19721 23.0935 2.43547L22.7819 1.77812C22.58 1.35184 22.261 0.991766 21.8622 0.73992C21.4634 0.488074 21.0012 0.354844 20.5295 0.355779C20.0578 0.356731 19.5961 0.491887 19.1982 0.745461C18.8004 0.999035 18.483 1.36056 18.283 1.78781L18.0036 2.38359L17.3342 2.05765C16.985 1.88722 16.6006 1.80104 16.2121 1.80601C15.8235 1.81098 15.4415 1.90697 15.0967 2.08628C14.7519 2.26558 14.454 2.52322 14.2268 2.83849C13.9996 3.15377 13.8495 3.51792 13.7885 3.90172C13.7066 4.4152 13.7878 4.94142 14.0205 5.4064L14.2091 5.7814C13.9114 5.98836 13.6625 6.25777 13.4796 6.57084C13.2968 6.88391 13.1845 7.23311 13.1505 7.59406C12.7457 7.65109 12.3572 7.7918 12.0098 8.00723C11.6623 8.22265 11.3636 8.50807 11.1325 8.84531L11.1033 8.83953C9.46902 8.55876 7.78993 8.93325 6.42986 9.88187C5.06954 10.8306 4.13771 12.277 3.83616 13.9078C3.53461 15.5386 3.88763 17.2226 4.81876 18.595C5.74967 19.9673 7.18385 20.9174 8.81048 21.2395L8.97892 21.2725L9.10579 21.2973L25.6655 24.533C26.3128 24.6594 26.9838 24.5234 27.5309 24.1551C28.078 23.7868 28.4564 23.2162 28.5828 22.5689L30.3014 13.7733C30.4091 13.2181 30.3542 12.6436 30.1433 12.1189C29.9324 11.5942 29.5746 11.1415 29.1127 10.8152Z" fill="#F1F333" stroke="black" stroke-width="0.15625" stroke-miterlimit="10"/>
<path d="M26.2085 22.1077L9.71783 18.8855M13.0222 11.6125L13.251 10.4417C13.2737 10.3257 13.3415 10.2234 13.4396 10.1573C13.5377 10.0913 13.658 10.0669 13.7741 10.0895L27.6453 12.7999C27.7028 12.8111 27.7574 12.8335 27.8062 12.8659C27.855 12.8983 27.8968 12.94 27.9295 12.9886C27.9621 13.0372 27.9849 13.0917 27.9964 13.1491C28.0079 13.2065 28.0081 13.2656 27.9967 13.323L26.2781 22.1184" stroke="black" stroke-width="0.15625" stroke-linecap="round" stroke-linejoin="round"/>
<path d="M9.42251 18.828C11.4924 19.2323 13.4981 17.8819 13.9027 15.8117C14.307 13.7414 12.9572 11.7355 10.8874 11.3311C8.81767 10.9266 6.81189 12.277 6.40735 14.3472C6.00282 16.4175 7.35267 18.4234 9.42251 18.828Z" fill="black" stroke="black" stroke-width="0.15625" stroke-linecap="round" stroke-linejoin="round"/>
<path d="M14.1087 19.7406C14.6009 19.8368 15.1072 19.835 15.5987 19.7355C16.0902 19.6359 16.5573 19.4405 16.9733 19.1605C17.8135 18.5948 18.3946 17.7185 18.5888 16.7244C18.7831 15.7303 18.5745 14.6997 18.0091 13.8594C17.7291 13.4433 17.3699 13.0865 16.952 12.8093C16.5341 12.5321 16.0658 12.3399 15.5736 12.2438L10.8881 11.3281" stroke="black" stroke-width="0.15625" stroke-linecap="round" stroke-linejoin="round"/>
<path d="M7.71891 13.4527C8.03782 12.9803 8.48879 12.6123 9.01553 12.3947C9.54227 12.177 10.1215 12.1193 10.6808 12.2288M7.29063 15.7056C7.20444 15.3157 7.19965 14.9122 7.27656 14.5203" stroke="white" stroke-width="0.15625" stroke-linecap="round" stroke-linejoin="round"/>
<path d="M18.1977 10.7569L18.78 7.7764C18.8095 7.62471 18.8686 7.48031 18.9539 7.35147C19.0393 7.22263 19.1491 7.11187 19.2773 7.02553C19.4055 6.93919 19.5494 6.87895 19.7009 6.84827C19.8523 6.81759 20.0083 6.81706 20.16 6.84672L22.9502 7.39187C23.1018 7.42156 23.2461 7.48082 23.3748 7.56628C23.5036 7.65174 23.6142 7.76171 23.7004 7.88993C23.7867 8.01815 23.8468 8.1621 23.8774 8.31356C23.908 8.46502 23.9085 8.62102 23.8788 8.77265L21.4639 21.132" stroke="black" stroke-width="0.15625" stroke-linecap="round" stroke-linejoin="round"/>
<path d="M15.8627 12.3344L22.8584 13.7013L23.8992 14.7281C24.3904 15.1597 24.9873 15.4533 25.6289 15.5789L27.4186 15.9286M15.76 7.85392L17.7678 7.09486L16.3788 4.31986L19.3181 5.75236L20.6688 2.86798L22.0866 5.86407L24.1606 4.76657L23.8931 6.50345L27.5536 6.07329L25.2631 8.27392L26.6009 9.9722L15.76 7.85392ZM19.5299 19.8008C19.63 19.8218 19.7334 19.8226 19.8339 19.8033C19.9344 19.784 20.0301 19.745 20.1154 19.6884C20.2007 19.6318 20.2739 19.5588 20.3308 19.4737C20.3876 19.3886 20.427 19.293 20.4466 19.1925C20.4662 19.0921 20.4656 18.9887 20.445 18.8885C20.4243 18.7882 20.3839 18.6931 20.3261 18.6086C20.2684 18.5241 20.1944 18.4519 20.1085 18.3962C20.0226 18.3405 19.9265 18.3025 19.8258 18.2842C19.626 18.2481 19.4199 18.2921 19.2522 18.4066C19.0846 18.5212 18.9688 18.6972 18.9299 18.8966C18.891 19.0959 18.9321 19.3025 19.0444 19.4717C19.1567 19.641 19.3311 19.7592 19.5299 19.8008ZM26.1078 10.7589C26.3526 10.8071 26.5682 10.9506 26.7073 11.1577C26.8464 11.3648 26.8976 11.6186 26.8497 11.8635L26.7116 12.5705L24.865 12.2095L25.0031 11.5027C25.0511 11.2576 25.1944 11.0416 25.4015 10.9021C25.6087 10.7627 25.8627 10.7112 26.1078 10.7589Z" stroke="black" stroke-width="0.15625" stroke-linecap="round" stroke-linejoin="round"/>
</g>
</g>
<defs>
<clipPath id="clip0_1_115">
<rect width="35" height="25" fill="white"/>
</clipPath>
</defs>
</svg>
