<svg width="35" height="25" viewBox="0 0 35 25" fill="none" xmlns="http://www.w3.org/2000/svg">
<path d="M32.7692 11.6458L29.4213 6.89563C29.3613 6.81008 29.2957 6.72865 29.2248 6.65188L26.2747 2.3597C26.0394 2.01733 25.7224 1.73912 25.3523 1.55032C24.9822 1.36139 24.5707 1.26777 24.1552 1.27792C23.7397 1.28806 23.3333 1.40167 22.9728 1.60845C22.6125 1.81513 22.3094 2.10854 22.0913 2.46204L19.4281 0.728134C19.1353 0.537201 18.8057 0.409826 18.4606 0.354242C18.1155 0.298658 17.7626 0.3161 17.4246 0.405443C17.0867 0.494785 16.7712 0.65404 16.4987 0.872914C16.2261 1.09179 16.0025 1.36541 15.8423 1.6761C15.6287 2.09144 15.5361 2.55848 15.5752 3.02392L15.6241 3.61142L14.4948 3.49688C14.1561 3.46263 13.8139 3.49795 13.4893 3.60066C13.1646 3.70338 12.8644 3.87134 12.607 4.09423C12.3499 4.31704 12.1411 4.5901 11.9934 4.89662C11.8458 5.20314 11.7624 5.53663 11.7484 5.87657H4.21531C3.55336 5.87651 2.91844 6.13917 2.45 6.60688C2.21821 6.83832 2.03432 7.11317 1.90885 7.41573C1.78337 7.71829 1.71878 8.04262 1.71875 8.37017V22.2038C1.71875 22.865 1.98172 23.4992 2.45 23.9669C2.91842 24.4346 3.55334 24.6974 4.21531 24.6974H30.7245C31.3867 24.6974 32.0217 24.4345 32.4898 23.9669C32.7216 23.7355 32.9055 23.4607 33.031 23.1581C33.1565 22.8556 33.2211 22.5313 33.2211 22.2038V13.0813C33.2221 12.5676 33.0643 12.0662 32.7692 11.6458Z" fill="#FF7051" stroke="black" stroke-width="0.15625" stroke-miterlimit="10"/>
<path d="M27.3333 8.34424V8.34345L27.3533 8.33002L30.7005 13.0803V22.2036H27.2975V8.36924L27.3333 8.34424ZM17.0889 11.8828V22.2039H14.4009V8.36955L15.0217 9.19236L17.0523 11.883L17.0889 11.8828Z" fill="black"/>
<path d="M4.19217 22.2039V8.36951H14.4008V22.2039M17.0889 22.2039V8.36951H27.2976V22.2039" stroke="black" stroke-width="0.15625" stroke-linecap="round" stroke-linejoin="round"/>
<path d="M27.4273 8.4797L27.3334 8.34423V8.3433L24.1902 3.77001L23.7125 6.51298L18.0392 2.8158L18.338 6.39423L14.2186 5.97705L16.1294 8.7797L15.1747 9.0772" stroke="black" stroke-width="0.15625" stroke-linecap="round" stroke-linejoin="round"/>
<path d="M27.3533 8.33014L30.7003 13.0803V22.2036H4.19202M14.4009 8.36951L15.0217 9.19233L17.0523 11.883M10.5094 12.3058C10.5094 12.0661 10.4383 11.8318 10.3051 11.6326C10.1719 11.4334 9.98246 11.2783 9.76092 11.1869C9.53937 11.0952 9.29563 11.0712 9.06046 11.1179C8.82528 11.1647 8.60922 11.28 8.43952 11.4494C8.27006 11.6187 8.15463 11.8345 8.10785 12.0694C8.06107 12.3043 8.08503 12.5479 8.1767 12.7692C8.26853 12.9907 8.424 13.1799 8.62343 13.313C8.82285 13.446 9.05727 13.5169 9.29702 13.5167C9.61851 13.5169 9.92693 13.3894 10.1545 13.1623C10.2671 13.0499 10.3564 12.9164 10.4173 12.7694C10.4782 12.6224 10.5094 12.4649 10.5094 12.3058Z" stroke="black" stroke-width="0.15625" stroke-linecap="round" stroke-linejoin="round"/>
<path d="M7.37689 16.1175V20.0515M8.63626 15.4809V20.6884M9.89345 15.4809V20.6884M11.1519 16.1175V20.0515M11.3156 16.2003H7.37704M11.9534 17.4567H6.74048M11.9534 18.7137H6.74048M11.3156 19.9701H7.37704M20.2745 16.1175V20.0515M21.532 15.4809V20.6884M22.7903 15.4809V20.6884M24.0477 16.1175V20.0515M24.2125 16.2003H20.2745M24.8508 17.4567H19.6353M24.8508 18.7137H19.6353M24.2125 19.9701H20.2745M23.4053 12.3058C23.4054 12.066 23.3343 11.8317 23.201 11.6324C23.0677 11.4332 22.8782 11.2781 22.6566 11.1867C22.435 11.0951 22.1912 11.0711 21.956 11.1179C21.7207 11.1647 21.5047 11.2802 21.335 11.4497C21.1656 11.6191 21.0503 11.8349 21.0036 12.0699C20.957 12.3048 20.981 12.5484 21.0728 12.7697C21.1647 12.991 21.3202 13.1802 21.5197 13.3131C21.6688 13.4124 21.8381 13.4775 22.0153 13.5037C22.1926 13.5299 22.3735 13.5165 22.5449 13.4644C22.7164 13.4124 22.8742 13.3231 23.0071 13.2029C23.1399 13.0826 23.2445 12.9345 23.3133 12.769C23.3741 12.6222 23.4053 12.4647 23.4053 12.3058ZM25.2086 20.9526C25.2086 20.8731 25.2262 20.7946 25.2602 20.7227C25.2942 20.6509 25.3438 20.5875 25.4053 20.5371C25.4668 20.4867 25.5387 20.4506 25.6159 20.4314C25.693 20.4122 25.7735 20.4104 25.8514 20.4261C25.9823 20.4521 26.0987 20.5259 26.1781 20.6331C26.2575 20.7403 26.2942 20.8732 26.2809 21.0059C26.2677 21.1387 26.2055 21.2617 26.1065 21.3511C26.0075 21.4405 25.8787 21.4899 25.7453 21.4895C25.603 21.4892 25.4667 21.4326 25.3661 21.3319C25.2655 21.2313 25.2089 21.0949 25.2086 20.9526ZM12.0897 18.7365C12.1874 18.311 12.1874 17.8688 12.0897 17.4433C11.9307 16.7597 11.5256 16.1585 10.9517 15.7545C10.3776 15.3502 9.67484 15.1709 8.97714 15.2508C8.27945 15.3307 7.63544 15.6641 7.16751 16.1878C6.70005 16.7111 6.44165 17.3882 6.44165 18.0899C6.44165 18.7916 6.70005 19.4687 7.16751 19.992C7.63541 20.5156 8.2794 20.8491 8.97707 20.929C9.67473 21.0089 10.3774 20.8296 10.9516 20.4253C11.5254 20.0212 11.9306 19.4201 12.0897 18.7365ZM24.9858 18.7372C25.1134 18.1879 25.0758 17.6131 24.8777 17.0851C24.6796 16.5572 24.3299 16.0995 23.8725 15.7697C23.5304 15.5229 23.1381 15.3546 22.7235 15.2768C22.309 15.1989 21.8823 15.2135 21.474 15.3194C21.0657 15.4254 20.6858 15.62 20.3613 15.8896C20.0369 16.1591 19.7759 16.4969 19.5969 16.8789C19.3581 17.3896 19.2756 17.9595 19.3597 18.517C19.444 19.0746 19.6912 19.5948 20.0702 20.0123C20.4494 20.4302 20.9434 20.7268 21.4905 20.8651C21.9182 20.9734 22.3652 20.9815 22.7966 20.8889C23.2281 20.7963 23.6323 20.6055 23.978 20.3312C24.4848 19.9291 24.8406 19.3673 24.9874 18.7372H24.9858Z" stroke="black" stroke-width="0.15625" stroke-linecap="round" stroke-linejoin="round"/>
</svg>
