<svg width="35" height="25" viewBox="0 0 35 25" fill="none" xmlns="http://www.w3.org/2000/svg">
<path d="M29.6651 11.2884H29.1892L28.5522 9.51891C28.3543 8.96889 27.9592 8.51199 27.4434 8.23688C26.9279 7.96194 26.3285 7.88854 25.7619 8.03094H25.7445C25.6463 8.04526 25.546 8.03055 25.456 7.98864C25.366 7.94672 25.2902 7.87942 25.2379 7.795L23.7009 5.35813C23.5054 4.96307 23.203 4.63076 22.8281 4.39891C22.4533 4.16718 22.0211 4.04527 21.5805 4.04703C19.9798 4.02734 16.9656 4.75453 14.9762 7.55375C14.7439 7.48828 14.5028 7.45883 14.2615 7.46641L10.7926 7.58203L9.04201 6.83516C9.00017 6.81658 8.95798 6.79882 8.91545 6.78188L8.86295 6.75906C7.42732 6.16 5.92014 6.09953 4.59607 6.59625C3.9963 6.81764 3.44647 7.15595 2.97849 7.59155C2.51052 8.02715 2.13373 8.55136 1.86998 9.13375C1.85436 9.16906 1.83857 9.20453 1.82436 9.24063L1.30842 10.5472C1.15139 10.9402 0.903106 11.6863 0.903106 11.6863C0.800293 12.0956 0.353418 14.1034 0.872481 16.0159C0.471526 16.5564 0.255377 17.2116 0.256075 17.8845C0.257475 18.7178 0.588884 19.5167 1.17779 20.1062C1.76637 20.6955 2.56463 21.0273 3.39748 21.0288H19.3775C19.42 21.0248 19.4631 21.0209 19.5047 21.0155H19.5236C19.5659 21.0092 19.6076 21.002 19.6492 20.9942L19.6736 20.9895C19.7208 20.9792 19.767 20.9683 19.8134 20.9558H19.822C19.8684 20.9431 19.9139 20.9289 19.9595 20.9133H19.9681C20.0137 20.8967 20.0592 20.8795 20.1033 20.8614L20.122 20.8536C20.1653 20.8347 20.2069 20.8158 20.2484 20.7953H20.2548C20.2948 20.7748 20.3333 20.7537 20.3726 20.7309L20.4072 20.7113C20.4433 20.6892 20.4786 20.6672 20.5131 20.6444L20.5501 20.6184L20.6223 20.565L20.6647 20.5328C20.6945 20.5092 20.7236 20.4841 20.7526 20.4589L20.7959 20.4203C20.8195 20.3984 20.8422 20.3756 20.865 20.3528C20.9047 20.3143 20.942 20.2733 20.9765 20.2302C20.9859 20.2192 20.9962 20.2081 21.0056 20.1964C21.0339 20.1625 21.0614 20.128 21.084 20.0919C21.0897 20.0839 21.0959 20.0761 21.1014 20.0675C21.1615 19.985 21.2161 19.8986 21.2648 19.8088V19.8025L21.2695 19.7931L24.6569 19.8238H32.275C32.5844 19.8237 32.8909 19.7627 33.1767 19.6442C33.4626 19.5256 33.7222 19.3519 33.9409 19.133C34.3829 18.6906 34.6311 18.0908 34.6311 17.4655V16.2628C34.6294 14.945 34.1059 13.6815 33.175 12.7488C32.2445 11.8164 30.9823 11.2913 29.6651 11.2884Z" fill="#90A8ED" stroke="black" stroke-width="0.15625" stroke-miterlimit="10"/>
<path d="M26.2094 10.3178L27.407 13.6469H29.5394C29.8828 13.6465 30.223 13.714 30.5403 13.8453C30.8577 13.9767 31.146 14.1694 31.3887 14.4123C31.6318 14.6553 31.8245 14.9438 31.956 15.2614C32.0874 15.5789 32.1549 15.9193 32.1547 16.263V17.4648H24.615L16.4991 9.3414C18.3172 6.32281 21.4666 6.41171 21.4666 6.41171" stroke="black" stroke-width="0.15625" stroke-linecap="round" stroke-linejoin="round"/>
<path d="M21.4586 6.42422L23.122 9.06001C23.4186 9.53027 23.8456 9.9041 24.351 10.1359C24.8563 10.3678 25.4182 10.4476 25.9681 10.3656L26.2037 10.3303M17.554 8.08751L25.2805 15.9649L32.0661 15.9553" stroke="black" stroke-width="0.15625" stroke-linecap="round" stroke-linejoin="round"/>
<path d="M21.3778 11.9599C22.7083 9.56313 21.4665 6.41173 21.4665 6.41173M28.6072 13.7394C28.6071 13.9513 28.523 14.1545 28.3732 14.3044C28.2235 14.4543 28.0203 14.5387 27.8084 14.5389H26.0806L25.4451 13.8055C25.2542 13.5813 25.0023 13.4174 24.72 13.3336C24.4377 13.2499 24.1371 13.2499 23.8548 13.3338L22.994 13.5822M19.5369 17.22L3.89061 10.1138M19.0712 18.6855L3.37155 11.4277L3.89077 10.1141C4.50249 8.76423 6.18796 8.18813 7.96921 9.00095L10.2239 9.96626L14.2151 9.83345C14.107 10.3381 14.1952 10.865 14.462 11.3069C14.7287 11.7486 15.154 12.0718 15.6509 12.2105L19.8031 12.6303C19.8031 12.6303 20.4684 16.0883 19.0712 18.6855Z" stroke="black" stroke-width="0.15625" stroke-linecap="round" stroke-linejoin="round"/>
<path d="M19.8033 12.6263C19.8033 12.6263 16.2777 12.3597 14.7478 14.8902M7.87111 8.9575C7.7916 9.20733 7.80202 9.47711 7.90057 9.72006C7.99911 9.96301 8.17957 10.1638 8.41064 10.2877L9.96643 11.12C10.3551 11.3276 10.6712 11.6488 10.8727 12.0408C11.0742 12.4329 11.1514 12.877 11.0942 13.3141L11.0888 13.358M13.0403 10.007V11.5164M11.7978 10.007V11.5164M26.8449 12.4503L25.3833 12.8222M26.5386 11.2452L25.0771 11.6177M3.06143 12.2711C3.06143 12.2711 2.57283 14.2238 3.10533 15.6891M3.99205 13.9581C3.94388 14.6143 4.01384 15.2738 4.19861 15.9053" stroke="black" stroke-width="0.15625" stroke-linecap="round" stroke-linejoin="round"/>
<path d="M19.9147 15.8664L22.9502 15.9105L24.5609 17.4645L19.6038 17.4197L19.9147 15.8664ZM19.0713 18.6855H3.27204C3.16883 18.6855 3.06663 18.6652 2.97129 18.6256C2.87594 18.5861 2.78931 18.5282 2.71636 18.4552C2.64341 18.3822 2.58557 18.2955 2.54614 18.2002C2.50671 18.1048 2.48647 18.0026 2.48657 17.8994C2.48661 17.691 2.56936 17.4912 2.71664 17.3438C2.86392 17.1964 3.06368 17.1135 3.27204 17.1133H15.79L19.0713 18.6855Z" fill="black" stroke="black" stroke-width="0.15625" stroke-linecap="round" stroke-linejoin="round"/>
</svg>
