<svg width="35" height="25" viewBox="0 0 35 25" fill="none" xmlns="http://www.w3.org/2000/svg">
<path d="M9.30999 24.4397L6.69655 22.4458C6.29311 22.1385 6.01757 21.6929 5.92296 21.1947L5.34796 18.1322C5.28163 17.7795 5.30875 17.4156 5.42662 17.0766C5.54448 16.7376 5.749 16.4353 6.01984 16.1998L7.38968 15.0088L7.44609 14.9598L7.38734 14.9136L7.24218 14.7997C7.0257 14.6283 6.84599 14.415 6.71377 14.1726C6.58154 13.9302 6.49952 13.6637 6.4726 13.3888C6.44568 13.114 6.47441 12.8366 6.55707 12.5732C6.63974 12.3097 6.77465 12.0656 6.95374 11.8555C7.19284 11.5745 7.50318 11.3632 7.85218 11.2436V11.2433L8.92812 10.8753L8.98437 10.8561L8.96718 10.7991C8.88561 10.5296 8.86028 10.2463 8.89275 9.96665C8.92522 9.68701 9.0148 9.41703 9.15593 9.17344C9.29687 8.92988 9.48637 8.71789 9.71266 8.55062C9.93895 8.38336 10.1972 8.26439 10.4714 8.2011L11.4153 7.98547L11.4814 7.97047L11.4601 7.90625L10.908 6.23375C10.7655 5.80266 10.7696 5.33654 10.9198 4.90806C11.07 4.47958 11.3577 4.11283 11.7381 3.865C11.9905 3.70079 12.2759 3.5941 12.5741 3.5525L12.6159 3.54657L12.6256 3.50547C12.8479 2.55299 13.3857 1.70362 14.1516 1.09532C14.9173 0.487139 15.8663 0.155854 16.8442 0.155315H25.2716C26.419 0.156846 27.5191 0.613557 28.3302 1.42522C29.1413 2.23689 29.5973 3.3372 29.5981 4.48469V12.9147C29.5969 14.0623 29.1408 15.1626 28.3297 15.9745C27.5187 16.7861 26.4189 17.2427 25.2716 17.2442H24.6553L24.6373 17.2755C24.3981 17.6984 24.0167 18.0228 23.5608 18.191C23.105 18.3592 22.6043 18.3604 22.1476 18.1942L21.1355 17.8261L21.0789 17.8055L21.0572 17.8617L20.8637 18.3597C20.7291 18.7054 20.5034 19.0081 20.2105 19.2359C19.9177 19.4636 19.5686 19.6079 19.2005 19.6533H19.1137L19.1022 19.7L18.5016 22.1242C18.4869 22.1806 18.4717 22.2352 18.4534 22.2888L18.4531 22.2892C18.3122 22.7063 18.0411 23.0671 17.6799 23.3186C17.3186 23.5701 16.8861 23.699 16.4461 23.6864C16.1542 23.6777 15.8676 23.607 15.6051 23.4789L15.6036 23.4781L15.602 23.4775L13.7078 22.673L13.6703 22.657L13.6408 22.6853L11.9845 24.2816C11.6013 24.6528 11.0887 24.8606 10.5551 24.8608C10.105 24.8613 9.66744 24.7133 9.30999 24.4397Z" fill="#90A8ED"/>
<path d="M10.5552 24.8608C11.0888 24.8606 11.6013 24.6528 11.9846 24.2816L13.6408 22.6853L13.6702 22.657L13.7077 22.673L15.6022 23.4775L15.6036 23.4781L15.6052 23.4789C15.8676 23.607 16.1543 23.6777 16.4461 23.6864C16.8861 23.699 17.3186 23.5701 17.6799 23.3186C18.0412 23.0671 18.3122 22.7063 18.4531 22.2892L18.4535 22.2888C18.4717 22.2352 18.4869 22.1808 18.5016 22.1244L19.1022 19.7L19.1138 19.6533H19.2005C19.5687 19.6079 19.9177 19.4636 20.2105 19.2359C20.5034 19.0081 20.7291 18.7054 20.8638 18.3597L21.0572 17.8617L21.0789 17.8055L21.1355 17.8261L22.1477 18.1942C22.6043 18.3604 23.105 18.3592 23.5609 18.191C24.0167 18.0228 24.3981 17.6984 24.6374 17.2755L24.6553 17.2442H25.2716C26.4189 17.2427 27.5187 16.786 28.3297 15.9745C29.1408 15.1626 29.5969 14.0623 29.5981 12.9147V4.48469C29.5974 3.3372 29.1414 2.23689 28.3302 1.42522C27.5191 0.613557 26.4191 0.156846 25.2716 0.155315H16.8442C15.8664 0.15589 14.9175 0.487172 14.1517 1.09532C13.3858 1.7036 12.848 2.55297 12.6256 3.50547L12.616 3.54657L12.5742 3.5525C12.276 3.59407 11.9906 3.70094 11.7383 3.865C11.3578 4.11281 11.0701 4.47955 10.9199 4.90803C10.7697 5.33651 10.7655 5.80264 10.908 6.23375L11.46 7.90625L11.4814 7.97047L11.4153 7.98563L10.4714 8.2011C10.1972 8.26436 9.93892 8.38332 9.71259 8.55058C9.48627 8.71785 9.29675 8.92986 9.1558 9.17344C9.01468 9.41703 8.9251 9.68702 8.89264 9.96665C8.86017 10.2463 8.8855 10.5296 8.96705 10.7991L8.98424 10.8561L8.92799 10.8753L7.85236 11.2433V11.2436C7.50322 11.3631 7.19272 11.5745 6.95351 11.8555C6.7143 12.1365 6.55522 12.4767 6.49299 12.8405C6.43043 13.2042 6.46699 13.5781 6.59882 13.9229C6.73066 14.2676 6.9529 14.5705 7.24221 14.7997L7.38752 14.9138L7.44611 14.9598L7.38986 15.0088L6.01971 16.1998C5.74882 16.4353 5.54427 16.7375 5.4264 17.0765C5.30853 17.4155 5.28144 17.7795 5.34783 18.1322L5.92283 21.1945C6.01748 21.6928 6.29308 22.1386 6.69658 22.4458L9.31002 24.4397C9.66743 24.7132 10.1051 24.8613 10.5552 24.8608ZM10.5552 24.8608V24.9223" stroke="black" stroke-width="0.157031"/>
<path d="M27.3948 4.78343V13.2187C27.3951 13.5175 27.3365 13.8134 27.2222 14.0895C27.108 14.3655 26.9404 14.6163 26.7291 14.8275C26.3023 15.2542 25.7236 15.4939 25.1201 15.4939H22.2373L22.1831 15.5206L20.7587 12.6097L23.9262 12.0572L21.4681 10.5198L25.3551 5.5339L19.0109 8.49422L18.0712 5.2214L16.1842 7.93062L14.3962 6.88343L14.4072 6.86484V4.78343C14.4069 4.33344 14.5402 3.89348 14.7901 3.51929C15.0401 3.14509 15.3954 2.85348 15.8112 2.6814C16.0873 2.56696 16.3832 2.50803 16.682 2.50797H25.1203C25.4191 2.50789 25.715 2.5667 25.991 2.68105C26.267 2.7954 26.5178 2.96303 26.7291 3.17437C26.9403 3.38567 27.1078 3.63652 27.2221 3.91258C27.3363 4.18864 27.3951 4.4845 27.395 4.78328L27.3948 4.78343Z" fill="black"/>
<path d="M17.7948 10.215L18.3559 13.8498L17.7019 16.4853L16.3475 21.9448L15.8048 18.8903L17.7969 10.2613H17.7859L17.7948 10.215Z" fill="black"/>
<path d="M17.7949 10.2594L15.8031 18.8884L15.7845 18.7855L17.7838 10.263L17.7949 10.2594ZM12.9506 17.0416L13.5263 20.1008L10.39 23.1156L9.81345 20.0566L12.9506 17.0416Z" fill="black"/>
<path d="M14.4072 6.865V4.78343C14.4069 4.33346 14.5402 3.89353 14.7901 3.51934C15.04 3.14514 15.3954 2.85353 15.8111 2.6814C16.0872 2.56697 16.3831 2.50804 16.6819 2.50797H25.1202C25.7236 2.50808 26.3023 2.74784 26.7291 3.17453C27.1555 3.6013 27.395 4.17997 27.3949 4.78328V13.2192C27.3951 13.518 27.3365 13.8138 27.2222 14.0898C27.108 14.3659 26.9404 14.6166 26.7291 14.8278C26.3023 15.2544 25.7236 15.4941 25.1202 15.4942H22.2374" stroke="black" stroke-width="0.15625" stroke-linecap="round" stroke-linejoin="round"/>
<path d="M13.0776 11.8797L13.073 11.877L10.7687 10.5094L13.9805 9.76782L12.6961 5.88703L14.3959 6.88375L16.185 7.9311L18.0709 5.22203L19.0116 8.49485L25.355 5.53438L21.4678 10.5203L23.9259 12.0569L20.7586 12.6105L22.183 15.5214L22.6951 16.5686L19.7386 15.4945L18.7933 17.9217L17.7992 16.5097" stroke="black" stroke-width="0.15625" stroke-linecap="round" stroke-linejoin="round"/>
<path d="M17.7837 10.263L13.0728 11.8769L8.35031 13.4952C8.35031 13.4952 9.29469 14.2431 10.5108 15.1837L7.19406 18.0614L9.80969 20.0566M12.9506 17.0416L15.8002 18.9042L15.803 18.8884M12.9506 17.0416L9.81328 20.0566L10.39 23.1156M12.9506 17.0416L13.5262 20.1008M16.3473 21.9448L16.3759 21.9622" stroke="black" stroke-width="0.15625" stroke-linecap="round" stroke-linejoin="round"/>
<path d="M7.19797 18.0614L7.77375 21.1203L10.3941 23.1155L13.5264 20.1006C13.5264 20.1006 15.698 21.5313 16.3456 21.943M17.7837 10.263L17.7947 10.215L18.3569 13.8498L17.7017 16.4853L16.3483 21.9448L16.3473 21.9475L16.3464 21.943L15.803 18.8884L15.7844 18.7855L17.7837 10.263Z" stroke="black" stroke-width="0.15625" stroke-linecap="round" stroke-linejoin="round"/>
</svg>
