<svg width="35" height="25" viewBox="0 0 35 25" fill="none" xmlns="http://www.w3.org/2000/svg">
<path d="M25.9686 12.673C26.2184 12.6433 26.4719 12.6669 26.7119 12.7424C26.9519 12.8178 27.1732 12.9433 27.3611 13.1106C27.5492 13.2782 27.6998 13.4837 27.8027 13.7136C27.9057 13.9435 27.9588 14.1926 27.9584 14.4445V22.8264C27.9585 23.0605 27.9124 23.2923 27.8228 23.5085C27.7332 23.7248 27.602 23.9213 27.4364 24.0868C27.2709 24.2523 27.0744 24.3836 26.8582 24.4731C26.6419 24.5627 26.4102 24.6088 26.1761 24.6088H22.0152C20.1347 24.6088 19.1178 23.7738 18.5956 23.0772C18.496 22.9435 18.4054 22.8033 18.3245 22.6575L18.3102 22.6317L18.2823 22.6219C17.4311 22.3206 16.2664 21.7959 15.5409 21.0152L15.5405 21.0149L15.4878 20.9561L15.4588 20.9241L15.4163 20.9314C15.2616 20.9586 15.1053 20.9724 14.9483 20.9727C14.2727 20.97 13.6225 20.7151 13.125 20.258L13.1078 20.2422L13.0847 20.2384C12.4599 20.1377 11.8885 19.8261 11.4655 19.3555L11.4513 19.3397L11.4309 19.3331L11.3417 19.3049L11.3108 19.2952L11.2822 19.31L9.55782 20.203V20.2031C9.23011 20.3735 8.85759 20.4378 8.49172 20.3874C8.12585 20.3369 7.78468 20.1741 7.51532 19.9214C7.24613 19.6686 7.06209 19.3385 6.98862 18.9766C6.91514 18.6147 6.95587 18.2389 7.10516 17.9011L8.065 15.7303C8.14458 15.5511 8.25299 15.3861 8.38594 15.2419L9.45078 14.093L9.4886 14.0524L9.46266 14.0033C9.35013 13.7907 9.27142 13.562 9.22938 13.3252C9.07828 12.4752 9.42735 11.5988 10.2959 10.7238C10.4605 10.5593 10.6326 10.4024 10.8116 10.2538L10.8125 10.2531L10.8134 10.2522C10.8405 10.2281 10.8664 10.2058 10.8931 10.1852L10.8947 10.1839C11.2847 9.86679 11.6971 9.57828 12.1288 9.32063C12.9232 8.85589 13.7952 8.5385 14.7025 8.38376L14.7288 8.37923L14.7467 8.3597L16.5269 6.43376L16.5447 6.41438L16.5473 6.38829C16.5972 5.86901 16.7726 5.36964 17.0583 4.93322C17.3441 4.49679 17.7318 4.13641 18.1878 3.88313L18.2111 3.87016L18.2216 3.84579C18.4979 3.20805 18.9724 2.67632 19.5747 2.32938L19.5966 2.31688L19.6069 2.29376C19.9217 1.59462 20.4754 1.0306 21.1686 0.702987C21.8619 0.375373 22.6492 0.305622 23.3892 0.506259C24.1292 0.707128 24.7733 1.16527 25.2059 1.79838C25.6385 2.43149 25.8311 3.19809 25.7492 3.96048C25.695 4.46578 25.522 4.95109 25.2443 5.37674C24.9666 5.80238 24.5922 6.15629 24.1516 6.40954L24.1297 6.4222L24.1194 6.44517C23.9802 6.75389 23.7933 7.03883 23.5656 7.28954L23.6234 7.34204L23.5655 7.2897C23.329 7.55131 23.0512 7.77223 22.743 7.9436L22.7198 7.95642L22.7094 7.98079C22.536 8.38163 22.2829 8.74296 21.9653 9.04275C21.6478 9.34255 21.2725 9.57452 20.8623 9.72454L20.7323 9.77204L20.8403 9.85876C21.0596 10.0348 21.2666 10.2256 21.4598 10.4299C21.8209 10.8108 22.1133 11.1669 22.3723 11.483C22.9503 12.188 23.1845 12.4495 23.5767 12.5617C23.9742 12.6752 24.4814 12.713 24.9313 12.718C25.382 12.7227 25.782 12.6947 25.9686 12.673Z" fill="#23A094"/>
<path d="M27.3611 13.1106C27.1731 12.9434 26.9519 12.8179 26.7119 12.7425C26.4718 12.6671 26.2186 12.6434 25.9688 12.6731C25.7822 12.6947 25.382 12.7228 24.9313 12.718C24.4814 12.7133 23.9742 12.6753 23.5767 12.5617C23.1845 12.4497 22.9503 12.1883 22.3723 11.4833C22.1133 11.167 21.8209 10.8109 21.4598 10.43C21.2666 10.2257 21.0596 10.0349 20.8403 9.8589L20.7323 9.77218L20.8623 9.72468C21.2725 9.57465 21.6477 9.34266 21.9653 9.04287C22.2828 8.74308 22.536 8.38175 22.7094 7.98093L22.7198 7.95655L22.743 7.94374C23.0512 7.77237 23.329 7.55145 23.5655 7.28984L23.6234 7.34218L23.5656 7.28968C23.7933 7.03897 23.9802 6.75403 24.1194 6.4453L24.1297 6.42234L24.1516 6.40984C24.5922 6.15658 24.9667 5.80267 25.2444 5.37701C25.5222 4.95136 25.6952 4.46604 25.7496 3.9607C25.8039 3.45537 25.7378 2.94435 25.5569 2.46941C25.376 1.99446 25.0852 1.56906 24.7084 1.22796C24.3317 0.88683 23.8797 0.639625 23.3892 0.506528C22.8988 0.373431 22.3838 0.358215 21.8863 0.462124C21.3889 0.566033 20.923 0.786119 20.5268 1.10441C20.1307 1.42271 19.8154 1.83019 19.6067 2.29359L19.5964 2.31671L19.5745 2.32921C18.9722 2.67618 18.4978 3.20798 18.2214 3.84577L18.2109 3.87015L18.1877 3.88312C17.7317 4.13651 17.3441 4.49692 17.0584 4.93332C16.7726 5.36972 16.5972 5.86903 16.5472 6.38827L16.5445 6.41437L16.5267 6.43374L14.7466 8.35968L14.7286 8.37921L14.7023 8.38374C13.795 8.53848 12.9231 8.85587 12.1286 9.32062C11.697 9.57826 11.2847 9.86678 10.8947 10.1839L10.893 10.1851C10.8656 10.2066 10.839 10.229 10.8133 10.2523L10.8123 10.2531L10.8114 10.2537C10.6324 10.4024 10.4603 10.5592 10.2958 10.7237C9.42719 11.5987 9.07813 12.475 9.22922 13.3253M27.3611 13.1106L27.413 13.0523M27.3611 13.1106C27.5492 13.2781 27.6998 13.4836 27.8027 13.7136C27.9057 13.9435 27.9588 14.1926 27.9584 14.4445V22.8264C27.9585 23.0605 27.9124 23.2922 27.8228 23.5085C27.7332 23.7247 27.602 23.9212 27.4364 24.0868C27.2709 24.2523 27.0744 24.3835 26.8582 24.4731C26.6419 24.5627 26.4102 24.6088 26.1761 24.6087H22.0152C20.1347 24.6087 19.1178 23.7737 18.5956 23.0772C18.496 22.9435 18.4054 22.8033 18.3245 22.6575L18.3102 22.6317L18.2823 22.6219C17.4311 22.3206 16.2664 21.7959 15.5409 21.0151L15.5405 21.0148L15.4878 20.9561L15.4588 20.9241L15.4163 20.9314C15.2616 20.9586 15.1053 20.9723 14.9483 20.9726C14.2727 20.97 13.6225 20.7151 13.125 20.258L13.1078 20.2422L13.0847 20.2384C12.4599 20.1377 11.8885 19.8261 11.4655 19.3555L11.4513 19.3397L11.4309 19.3331L11.3417 19.3048L11.3108 19.2951L11.2822 19.31L9.55782 20.203V20.2031C9.23011 20.3735 8.85759 20.4378 8.49172 20.3874C8.12585 20.3369 7.78468 20.1741 7.51532 19.9214C7.24613 19.6686 7.06209 19.3384 6.98862 18.9765C6.91514 18.6146 6.95587 18.2388 7.10516 17.9011L8.065 15.7303C8.14458 15.5511 8.25299 15.386 8.38594 15.2419L9.45078 14.093L9.4886 14.0523L9.46266 14.0033C9.35013 13.7907 9.27142 13.5619 9.22938 13.3251L9.16282 13.337M25.9597 12.5955C25.5936 12.6378 24.373 12.7078 23.5983 12.4867C23.2344 12.3826 23.0156 12.1445 22.4328 11.4336C22.1739 11.1175 21.8798 10.7595 21.5167 10.3762C21.3418 10.1913 21.1557 10.0173 20.9595 9.85515L20.9163 9.8714L20.8894 9.79796L20.9383 9.73702L20.9738 9.76577C21.7847 9.4436 22.4347 8.81288 22.7811 8.01202" stroke="black" stroke-width="0.15625"/>
<path d="M22.2444 6.17953C22.3722 6.03906 22.4709 5.87467 22.5347 5.69584C22.5986 5.51701 22.6264 5.32729 22.6166 5.13765C22.9014 5.12438 23.1759 5.02684 23.4052 4.85738C23.6346 4.68793 23.8084 4.45419 23.9047 4.18581C24.0011 3.91743 24.0156 3.62648 23.9463 3.34986C23.8771 3.07324 23.7273 2.8234 23.516 2.63201C23.3046 2.44063 23.0411 2.31632 22.759 2.27484C22.4769 2.23336 22.1888 2.27658 21.9313 2.39902C21.6738 2.52147 21.4584 2.71762 21.3125 2.96261C21.1666 3.2076 21.0967 3.4904 21.1117 3.77515C20.8185 3.78788 20.5362 3.89012 20.3028 4.06812C20.0694 4.24612 19.8961 4.49134 19.8062 4.77078C19.7466 4.95632 19.7254 5.15207 19.7439 5.34609C19.4537 5.34742 19.1706 5.43647 18.9318 5.60155C18.6931 5.76662 18.5098 6.00001 18.4061 6.27109C18.3283 6.47371 18.2974 6.6913 18.3156 6.90757C18.3339 7.12384 18.4008 7.33318 18.5114 7.51993C18.6219 7.70668 18.7733 7.866 18.9542 7.98596C19.1351 8.10592 19.3407 8.18342 19.5558 8.21265C19.7707 8.24206 19.9896 8.22252 20.1959 8.15549C20.4022 8.08845 20.5908 7.97566 20.7474 7.82554C20.904 7.67541 21.0247 7.49184 21.1004 7.28852C21.1762 7.08521 21.205 6.86741 21.1847 6.6514C21.3844 6.65072 21.5818 6.6084 21.7643 6.52715C21.9467 6.4459 22.1102 6.32751 22.2444 6.17953Z" fill="black" stroke="black" stroke-width="0.15625" stroke-linecap="round" stroke-linejoin="round"/>
<path d="M17.6028 10.3692C18.5817 10.5427 19.4799 11.0237 20.1667 11.7424C21.3008 12.9397 21.763 13.9838 23.0869 14.3619C24.411 14.74 26.1761 14.53 26.1761 14.53V22.9139H22.0153C19.8094 22.9139 19.683 21.2767 19.683 21.2767C19.683 21.2767 17.6661 20.773 16.846 19.8903C16.026 19.0078 15.6486 17.8103 14.1356 17.1167C12.6225 16.4231 11.8664 16.0452 11.8664 15.6039C11.8664 14.728 13.0639 14.3431 14.4511 14.9102C15.8383 15.4774 17.2925 16.4931 18.0442 15.9819C19.095 15.2675 19.1605 13.7494 17.8953 12.837C17.2628 12.38 16.5089 12.3466 15.6678 12.4308M19.4522 8.2261L13.5267 14.6141" stroke="black" stroke-width="0.15625" stroke-linecap="round" stroke-linejoin="round"/>
<path d="M12.182 16.1727L10.8536 17.6103L8.73547 18.7117L9.69547 16.5409L18.3589 7.16281M15.5644 10.1597C14.6768 10.2245 13.8156 10.4905 13.0459 10.9373C11.9297 11.6027 10.8878 12.5611 10.9867 13.1014C11.0798 13.6291 11.9542 13.8998 12.5839 13.3991M15.0978 15.1961C15.3236 14.9199 15.571 14.6621 15.8375 14.425C16.7619 13.6683 17.5188 13.4577 18.4855 13.5" stroke="black" stroke-width="0.15625" stroke-linecap="round" stroke-linejoin="round"/>
<path d="M11.2984 17.1145C11.2984 17.1145 11.6981 18.0387 12.6433 17.6608C12.9342 17.5447 13.2676 17.2626 13.6108 16.9076M16.552 15.8422C17.3461 15.1933 18.0158 14.9491 18.8009 14.9164M12.5809 17.9341C12.5809 17.9341 12.9797 18.8584 13.9256 18.4803C14.2337 18.3575 14.5895 18.048 14.9572 17.6617M14.0409 18.638C14.0409 18.638 14.4398 19.5623 15.3858 19.1842C15.604 19.0854 15.805 18.9523 15.9811 18.7898M11.9081 15.4542C11.9081 15.4542 12.1812 14.8031 12.9381 15.1812C13.4672 15.4461 13.715 15.8956 13.6734 16.1687C13.6317 16.4419 13.4003 16.6525 13.043 16.5683M11.0462 12.8697C11.0462 12.8697 11.4876 13.0803 11.9291 12.6598C12.3703 12.2395 11.9922 11.6723 11.9922 11.6723M9.72296 16.5408C9.72296 16.5408 9.75796 17.0231 10.1503 17.3036C10.3645 17.4651 10.6157 17.5705 10.8811 17.6101" stroke="black" stroke-width="0.15625" stroke-linecap="round" stroke-linejoin="round"/>
<path d="M23.2134 3.04594C23.0845 2.92919 22.9286 2.8463 22.7598 2.80473C22.5909 2.76317 22.4143 2.76423 22.2459 2.80782" stroke="white" stroke-width="0.15625" stroke-linecap="round" stroke-linejoin="round"/>
</svg>
